<svg width="32" height="28" viewBox="0 0 32 28" fill="none" xmlns="http://www.w3.org/2000/svg">
<g clip-path="url(#clip0)">
<path d="M21.3989 14.9595C19.959 12.7131 17.5066 11.3718 14.8386 11.3718C12.1709 11.3718 9.71826 12.7131 8.27856 14.9595L4.80884 20.3723C4.23315 21.2705 3.96753 22.3079 4.04052 23.3721C4.11352 24.4365 4.51855 25.4277 5.21167 26.239C5.90527 27.05 6.82178 27.6042 7.86206 27.842C8.90234 28.0796 9.96875 27.9783 10.9458 27.5488L11.0095 27.5205C13.4683 26.4607 16.2786 26.4702 18.7312 27.5488C19.3638 27.8269 20.0339 27.9675 20.7102 27.9675C21.0779 27.9675 21.4478 27.9258 21.8142 27.8423C22.8545 27.6047 23.771 27.0505 24.4648 26.2395C25.1582 25.4285 25.5635 24.437 25.6367 23.3726C25.71 22.3079 25.4443 21.2705 24.8687 20.3721L21.3989 14.9595ZM23.0393 25.0203C22.1567 26.052 20.729 26.3782 19.4863 25.8318C18.0093 25.1821 16.4238 24.8574 14.8379 24.8574C13.2534 24.8574 11.6682 25.1819 10.1921 25.8308L10.1501 25.8494C8.91699 26.3708 7.51025 26.0405 6.63745 25.0203C5.75586 23.9883 5.65552 22.5273 6.38794 21.3845L9.85791 15.9717C10.9512 14.2661 12.813 13.2478 14.8386 13.2478C16.8643 13.2478 18.7263 14.2661 19.8198 15.9717L23.2893 21.3843C24.022 22.5276 23.9214 23.9888 23.0393 25.0203Z" fill="black"/>
<path d="M5.74344 14.9524C6.77566 14.5559 7.55984 13.7241 7.95169 12.6101C8.32425 11.55 8.29373 10.3533 7.86526 9.23998C7.43655 8.12743 6.65677 7.21922 5.66971 6.68236C4.63235 6.11863 3.49295 6.02684 2.46243 6.42405C0.389186 7.22117 -0.56223 9.78319 0.341823 12.1365C1.06399 14.0095 2.74832 15.1919 4.4512 15.1919C4.88601 15.1919 5.32205 15.1147 5.74344 14.9524ZM2.09231 11.4626C1.5596 10.0759 2.02761 8.60081 3.13626 8.17454C3.33645 8.0974 3.54812 8.05907 3.76419 8.05907C4.09768 8.05907 4.44217 8.15013 4.77371 8.33055C5.3699 8.65453 5.84622 9.21703 6.11477 9.91405C6.38308 10.6116 6.40701 11.3479 6.18191 11.9878C5.97561 12.5742 5.58084 13.0054 5.07058 13.2014L5.06961 13.2019C3.96243 13.6287 2.62674 12.8481 2.09231 11.4626Z" fill="black"/>
<path d="M12.4758 10.7117C15.0676 10.7117 17.1763 8.30933 17.1763 5.35645C17.1763 2.40283 15.0676 0 12.4758 0C9.88428 0 7.77588 2.40283 7.77588 5.35645C7.77588 8.30933 9.88428 10.7117 12.4758 10.7117ZM12.4758 1.87573C14.0332 1.87573 15.3005 3.43726 15.3005 5.35645C15.3005 7.2749 14.0332 8.83594 12.4758 8.83594C10.9185 8.83594 9.65161 7.2749 9.65161 5.35645C9.65161 3.43726 10.9185 1.87573 12.4758 1.87573Z" fill="black"/>
<path d="M20.5936 12.0273H20.5938C20.9925 12.1597 21.3992 12.2229 21.8043 12.2229C23.6944 12.2229 25.5364 10.8472 26.2393 8.73291C26.6441 7.51587 26.6175 6.229 26.1644 5.10962C25.6902 3.93799 24.8116 3.0874 23.69 2.71435C22.5684 2.3418 21.3548 2.49707 20.2735 3.15185C19.2405 3.77759 18.449 4.79223 18.045 6.00928C17.1917 8.57666 18.335 11.2764 20.5936 12.0273ZM19.825 6.60083C20.0889 5.80615 20.5933 5.15137 21.2454 4.75635C21.8487 4.39087 22.5069 4.29785 23.0984 4.49438C23.6897 4.69116 24.1609 5.15942 24.4256 5.81323C24.7115 6.51977 24.7237 7.34643 24.4593 8.14111C23.9322 9.72705 22.4634 10.6719 21.1854 10.2473C19.9083 9.82251 19.2979 8.18677 19.825 6.60083Z" fill="black"/>
<path d="M30.4921 11.4024L30.4914 11.4017C28.7041 10.0814 26.031 10.6536 24.5322 12.678C23.0349 14.7034 23.269 17.4263 25.0537 18.7476C25.7045 19.2298 26.4736 19.4603 27.2607 19.4603C28.6325 19.4603 30.0598 18.7601 31.0136 17.4725C32.5109 15.4471 32.2771 12.7242 30.4921 11.4024ZM29.5061 16.3565C28.621 17.5511 27.1247 17.9473 26.1699 17.24C25.2158 16.5337 25.1577 14.9874 26.0402 13.7935C26.6269 13.001 27.4838 12.5601 28.2736 12.5601C28.673 12.5601 29.0554 12.6729 29.3767 12.9105C30.33 13.6175 30.3879 15.1634 29.5061 16.3565Z" fill="black"/>
</g>
<defs>
<clipPath id="clip0">
<rect width="32" height="28" fill="white"/>
</clipPath>
</defs>
</svg>
