<svg width="28" height="28" viewBox="0 0 28 28" fill="none" xmlns="http://www.w3.org/2000/svg">
<path d="M13.8005 13.4877C15.6534 13.4877 17.2578 12.8231 18.569 11.5119C19.8798 10.2009 20.5446 8.59682 20.5446 6.74364C20.5446 4.8911 19.88 3.2868 18.5688 1.97537C17.2575 0.66458 15.6532 0 13.8005 0C11.9473 0 10.3432 0.66458 9.0322 1.97558C7.72119 3.28658 7.0564 4.89089 7.0564 6.74364C7.0564 8.59682 7.72119 10.2011 9.0322 11.5121C10.3436 12.8229 11.9479 13.4877 13.8005 13.4877ZM10.1926 3.13577C11.1985 2.12982 12.3786 1.64084 13.8005 1.64084C15.2221 1.64084 16.4024 2.12982 17.4086 3.13577C18.4145 4.14193 18.9037 5.32219 18.9037 6.74364C18.9037 8.16551 18.4145 9.34556 17.4086 10.3517C16.4024 11.3579 15.2221 11.8469 13.8005 11.8469C12.379 11.8469 11.199 11.3577 10.1926 10.3517C9.18643 9.34578 8.69724 8.16551 8.69724 6.74364C8.69724 5.32219 9.18643 4.14193 10.1926 3.13577Z" fill="black"/>
<path d="M25.6008 21.5305C25.563 20.9849 25.4865 20.3898 25.3739 19.7613C25.2603 19.1281 25.114 18.5296 24.9388 17.9825C24.7576 17.417 24.5117 16.8586 24.2073 16.3235C23.8918 15.7681 23.521 15.2844 23.1048 14.8864C22.6697 14.4701 22.1369 14.1353 21.5208 13.8912C20.9069 13.6483 20.2265 13.5252 19.4987 13.5252C19.2128 13.5252 18.9364 13.6425 18.4026 13.9901C18.074 14.2043 17.6897 14.4521 17.2607 14.7262C16.894 14.9599 16.3971 15.1789 15.7833 15.3771C15.1845 15.5709 14.5766 15.6692 13.9763 15.6692C13.3764 15.6692 12.7685 15.5709 12.1693 15.3771C11.5562 15.1791 11.0591 14.9601 10.6929 14.7264C10.268 14.4549 9.88348 14.2071 9.55002 13.9899C9.0166 13.6423 8.74017 13.525 8.45435 13.525C7.72632 13.525 7.04614 13.6483 6.4324 13.8914C5.81674 14.1351 5.28375 14.4699 4.84818 14.8867C4.43204 15.2848 4.06119 15.7683 3.74588 16.3235C3.44189 16.8586 3.1958 17.4168 3.01465 17.9827C2.83969 18.5298 2.69336 19.1281 2.57971 19.7613C2.46692 20.3889 2.39066 20.9843 2.35284 21.5312C2.31567 22.0659 2.29688 22.6224 2.29688 23.1846C2.29688 24.6462 2.76151 25.8295 3.67773 26.7021C4.58264 27.5632 5.77979 27.9999 7.23605 27.9999H20.7182C22.1741 27.9999 23.3712 27.5632 24.2763 26.7021C25.1928 25.8301 25.6574 24.6464 25.6574 23.1844C25.6572 22.6202 25.6382 22.0637 25.6008 21.5305ZM23.145 25.5133C22.5471 26.0824 21.7532 26.359 20.718 26.359H7.23605C6.20062 26.359 5.4068 26.0824 4.80908 25.5135C4.22269 24.9553 3.93771 24.1933 3.93771 23.1846C3.93771 22.66 3.95502 22.1419 3.98962 21.6446C4.02338 21.1567 4.09238 20.6207 4.1947 20.0512C4.29575 19.4887 4.42435 18.9609 4.5773 18.483C4.72406 18.0248 4.92422 17.571 5.17245 17.134C5.40936 16.7174 5.68195 16.36 5.98273 16.072C6.26407 15.8027 6.61868 15.5822 7.03653 15.4169C7.42297 15.2639 7.85727 15.1802 8.32874 15.1676C8.3862 15.1981 8.48853 15.2564 8.6543 15.3645C8.99161 15.5843 9.3804 15.8351 9.81021 16.1096C10.2947 16.4185 10.9189 16.6975 11.6647 16.9383C12.4271 17.1848 13.2047 17.31 13.9765 17.31C14.7483 17.31 15.5261 17.1848 16.2881 16.9385C17.0345 16.6973 17.6585 16.4185 18.1436 16.1092C18.5835 15.8281 18.9614 15.5846 19.2987 15.3645C19.4645 15.2566 19.5668 15.1981 19.6243 15.1676C20.0959 15.1802 20.5302 15.2639 20.9169 15.4169C21.3345 15.5822 21.6891 15.8029 21.9705 16.072C22.2713 16.3598 22.5439 16.7172 22.7808 17.1342C23.0292 17.571 23.2296 18.025 23.3761 18.4828C23.5293 18.9613 23.6581 19.4889 23.7589 20.051C23.8611 20.6216 23.9303 21.1578 23.964 21.6448V21.6452C23.9988 22.1406 24.0164 22.6585 24.0166 23.1846C24.0164 24.1936 23.7314 24.9553 23.145 25.5133Z" fill="black"/>
</svg>
