<svg width="40" height="40" viewBox="0 0 40 40" fill="none" xmlns="http://www.w3.org/2000/svg">
    <path d="M23.8437 10.125H11.8646C10.2812 10.125 9 11.4062 9 12.9896V26.0104C9 27.5937 10.2812 28.875 11.8646 28.875H19.5521L19.7812 27.5937C19.8865 27.0104 20.1562 26.4896 20.574 26.0625L21.9281 24.7083H12.9062C12.4792 24.7083 12.125 24.3542 12.125 23.9271C12.125 23.5 12.4792 23.1458 12.9062 23.1458H22.8021C22.9896 23.1458 23.1667 23.2187 23.3021 23.3333L26.7083 19.9375V12.9896C26.7083 11.4062 25.4271 10.125 23.8437 10.125ZM22.8021 21.3229H12.9062C12.4792 21.3229 12.125 20.9687 12.125 20.5417C12.125 20.1146 12.4792 19.7604 12.9062 19.7604H22.8021C23.2292 19.7604 23.5833 20.1146 23.5833 20.5417C23.5833 20.9687 23.2292 21.3229 22.8021 21.3229ZM22.8021 17.9375H12.9062C12.4792 17.9375 12.125 17.5833 12.125 17.1562C12.125 16.7292 12.4792 16.375 12.9062 16.375H22.8021C23.2292 16.375 23.5833 16.7292 23.5833 17.1562C23.5833 17.5833 23.2292 17.9375 22.8021 17.9375Z" fill="#2196F3"/>
    <path d="M21.7604 9.08333H20.6145C20.2708 7.88542 19.1666 7 17.8541 7C16.5416 7 15.4375 7.88542 15.0937 9.08333H13.9479C13.5208 9.08333 13.1666 9.4375 13.1666 9.86458V11.9479C13.1666 12.9479 13.9895 13.7708 14.9895 13.7708H20.7187C21.7187 13.7708 22.5416 12.9479 22.5416 11.9479V9.86458C22.5416 9.4375 22.1875 9.08333 21.7604 9.08333Z" fill="#1976D2"/>
    <path d="M23.5833 17.1562C23.5833 17.5833 23.2292 17.9375 22.8021 17.9375H12.9062C12.4792 17.9375 12.125 17.5833 12.125 17.1562C12.125 16.7292 12.4792 16.375 12.9062 16.375H22.8021C23.2292 16.375 23.5833 16.7292 23.5833 17.1562Z" fill="white"/>
    <path d="M23.5833 20.5417C23.5833 20.9688 23.2292 21.323 22.8021 21.323H12.9062C12.4792 21.323 12.125 20.9688 12.125 20.5417C12.125 20.1147 12.4792 19.7605 12.9062 19.7605H22.8021C23.2292 19.7605 23.5833 20.1147 23.5833 20.5417Z" fill="white"/>
    <path d="M23.3021 23.3333L21.9271 24.7083H12.9063C12.4792 24.7083 12.125 24.3541 12.125 23.927C12.125 23.4999 12.4792 23.1458 12.9063 23.1458H22.8021C22.9896 23.1458 23.1667 23.2187 23.3021 23.3333Z" fill="white"/>
    <path d="M13.1667 10.125H11.8646C10.2813 10.125 9 11.4062 9 12.9896V26.0104C9 27.5937 10.2813 28.875 11.8646 28.875H17.8542V24.7083H12.9063C12.4792 24.7083 12.125 24.3542 12.125 23.9271C12.125 23.5 12.4792 23.1458 12.9063 23.1458H17.8542V21.3229H12.9063C12.4792 21.3229 12.125 20.9687 12.125 20.5417C12.125 20.1146 12.4792 19.7604 12.9063 19.7604H17.8542V17.9375H12.9063C12.4792 17.9375 12.125 17.5833 12.125 17.1562C12.125 16.7292 12.4792 16.375 12.9063 16.375H17.8542V13.7708H14.9896C13.9896 13.7708 13.1667 12.9479 13.1667 11.9479V10.125Z" fill="#1D83D4"/>
    <path d="M17.8541 7C16.5416 7 15.4375 7.88542 15.0937 9.08333H13.9479C13.5208 9.08333 13.1666 9.4375 13.1666 9.86458V10.125V11.9479C13.1666 12.9479 13.9895 13.7708 14.9895 13.7708H17.8541V7Z" fill="#1667B7"/>
    <path d="M17.8542 16.375H12.9062C12.4792 16.375 12.125 16.7292 12.125 17.1562C12.125 17.5833 12.4792 17.9375 12.9062 17.9375H17.8542V16.375Z" fill="#DEDEDE"/>
    <path d="M17.8542 19.7603H12.9062C12.4792 19.7603 12.125 20.1144 12.125 20.5415C12.125 20.9686 12.4792 21.3228 12.9062 21.3228H17.8542V19.7603Z" fill="#DEDEDE"/>
    <path d="M17.8542 23.146H12.9062C12.4792 23.146 12.125 23.5002 12.125 23.9272C12.125 24.3543 12.4792 24.7085 12.9062 24.7085H17.8542V23.146Z" fill="#DEDEDE"/>
    <path d="M22.0489 32.0001C21.8437 32.0001 21.6437 31.9189 21.4968 31.7709C21.3166 31.5907 21.2354 31.3345 21.2802 31.0824L21.8322 27.9522C21.8593 27.7949 21.9364 27.6491 22.0489 27.5366L29.7833 19.8022C30.7333 18.8511 31.6666 19.1074 32.177 19.6178L33.4656 20.9064C34.177 21.6178 34.177 22.773 33.4656 23.4845L25.7312 31.2189C25.6187 31.3324 25.4729 31.4084 25.3145 31.4366L22.1843 31.9876L22.0489 32.0001ZM25.1791 30.6668H25.1895H25.1791Z" fill="#FFC107"/>
    <path d="M31.1145 19.1614C30.7062 19.1614 30.2468 19.3385 29.7833 19.802L22.0489 27.5364C21.9364 27.6489 21.8593 27.7947 21.8322 27.952L21.2802 31.0822C21.2354 31.3343 21.3166 31.5905 21.4968 31.7708C21.5052 31.7791 21.5125 31.7864 21.5208 31.7937L32.9364 20.377L32.176 19.6166C31.9156 19.3562 31.5427 19.1614 31.1145 19.1614V19.1614Z" fill="#DEA806"/>
</svg>
