<svg width="80" height="80" viewBox="0 0 80 80" fill="none" xmlns="http://www.w3.org/2000/svg">
<g id="Property 1=Berner Sennenhund, Property 2=Medium">
<path id="Vector" d="M73.3334 34.6686C73.3334 38.7921 66.7644 44.3037 63.2032 48.8584C62.142 50.2126 61.8894 50.8365 61.8295 51.0414C62.1852 52.7202 60.5009 54.0957 58.9506 53.4018C57.6651 56.323 55.1078 61.9259 52.1173 62.9326C49.6878 63.7499 40.9285 66.0829 40.1511 66.1875C39.8839 66.2024 39.6433 66.1722 39.478 66.1257C36.773 65.4432 30.5531 63.8275 27.8829 62.9326C24.9132 61.933 22.3766 56.4174 21.0496 53.4018C19.4766 54.0984 17.819 52.7013 18.1707 51.0414C18.1108 50.8365 17.8582 50.2126 16.797 48.8584C13.2371 44.3054 6.66675 38.791 6.66675 34.6686C6.66675 29.6042 9.89904 27.5649 12.2253 24.045C14.0666 21.2589 13.3082 19.6622 17.9167 16.1744C21.8464 13.202 24.6485 13.9481 26.3503 15.0409C32.3795 10.4368 47.6098 10.4285 53.6498 15.0409C55.3516 13.9481 58.155 13.202 62.0834 16.1744C66.6998 19.6681 65.9229 21.2427 67.7748 24.045C70.1001 27.5635 73.3334 29.6037 73.3334 34.6686Z" fill="#818182"/>
<path id="Vector_2" d="M49.9687 42.0244C40.9062 42.0244 40 50.4308 40 50.4308C40 50.4308 39.0937 42.0244 30.0312 42.0244C23.47 42.0244 24.5104 55.8004 29.3711 63.4003C30.4086 63.711 39.2472 66.1929 40.0104 66.1929C40.7285 66.1929 49.448 63.7539 50.6289 63.4003C55.4896 55.8004 56.5299 42.0244 49.9687 42.0244Z" fill="#C79A83"/>
<path id="Vector_3" d="M45.2084 36.7703C43.1251 36.7703 41.0417 36.7703 41.0417 34.6687C41.0417 32.5671 43.1251 29.4147 43.1251 27.3131C43.1251 25.2115 40.0001 22.0591 40.0001 22.0591C40.0001 22.0591 36.8751 25.2115 36.8751 27.3131C36.8751 29.4147 38.9584 32.5671 38.9584 34.6687C38.9584 36.7703 36.8751 36.7703 34.7917 36.7703C32.7084 36.7703 28.5417 41.5331 28.5417 47.2784C28.5417 52.5324 31.6667 56.7356 40.0001 56.7356C48.3334 56.7356 51.4584 52.5324 51.4584 47.2784C51.4584 41.5331 47.2917 36.7703 45.2084 36.7703Z" fill="#F2F2F2"/>
<path id="Vector_4" d="M28.5131 18.2013L27.4714 24.5062C27.3621 25.1695 26.9441 25.7395 26.349 26.0403C26.198 26.1165 25.9701 26.2308 25.9063 27.1647C25.8217 28.3928 26.1055 30.258 26.4298 32.2217C27.5834 39.201 24.2678 50.3578 21.6811 52.9672C20.225 54.4407 17.7364 53.0911 18.1707 51.0416C18.1108 50.8367 17.8582 50.2128 16.797 48.8586C13.2371 44.3055 6.66675 38.7912 6.66675 34.6687C6.66675 29.6044 9.89409 27.5727 12.2253 24.0451C14.0666 21.259 13.3082 19.6623 17.9167 16.1746C23.5287 11.928 26.8425 15.2709 27.9311 16.3703C28.4076 16.8497 28.6238 17.5314 28.5131 18.2013Z" fill="#999999"/>
<path id="Vector_5" d="M73.333 34.6686C73.333 38.7921 66.764 44.3037 63.2028 48.8584C62.1416 50.2126 61.889 50.8365 61.8291 51.0414C62.2622 53.0852 59.7777 54.4435 58.3187 52.967C55.7256 50.3566 52.4207 39.1751 53.57 32.2215C53.8942 30.2578 54.1781 28.3927 54.0935 27.1645C54.0297 26.2306 53.8018 26.1164 53.6508 26.0402C53.0557 25.7394 52.6377 25.1693 52.5284 24.506L51.4867 18.2012C51.376 17.5313 51.5922 16.8496 52.0687 16.3701C53.1573 15.2707 56.4711 11.9292 62.083 16.1744C66.6994 19.6681 65.9225 21.2427 67.7744 24.045C70.1033 27.569 73.333 29.6037 73.333 34.6686Z" fill="#999999"/>
<path id="Vector_6" d="M31.6666 34.6687C32.8172 34.6687 33.7499 33.7277 33.7499 32.5671C33.7499 31.4064 32.8172 30.4655 31.6666 30.4655C30.516 30.4655 29.5833 31.4064 29.5833 32.5671C29.5833 33.7277 30.516 34.6687 31.6666 34.6687Z" fill="#A0BBC4"/>
<path id="Vector_7" d="M48.3333 34.6687C49.4839 34.6687 50.4167 33.7277 50.4167 32.5671C50.4167 31.4064 49.4839 30.4655 48.3333 30.4655C47.1827 30.4655 46.25 31.4064 46.25 32.5671C46.25 33.7277 47.1827 34.6687 48.3333 34.6687Z" fill="#A0BBC4"/>
<path id="Vector_8" d="M50.8266 45.2125C49.6979 44.985 48.6018 45.7177 48.3762 46.8558C48.3686 46.8915 47.6001 50.431 45.2086 50.431C43.3987 50.431 42.4896 49.9658 42.0836 49.6542V45.4884C43.5961 44.4292 44.5835 42.4448 43.1253 40.9738C42.5151 40.3582 41.0419 39.923 40.0002 40.9738C38.9586 39.923 37.4854 40.3582 36.8752 40.9738C35.417 42.4448 36.4044 44.4292 37.9169 45.4884V49.6542C37.5109 49.9658 36.6019 50.431 34.7919 50.431C32.4157 50.431 31.6418 46.9371 31.6246 46.857C31.3946 45.7242 30.2997 44.9906 29.175 45.2179C28.0467 45.4455 27.315 46.5526 27.5406 47.6908C27.5746 47.8618 27.8989 49.4069 28.8388 50.987C30.2377 53.339 32.3519 54.6344 34.7919 54.6344C37.2458 54.6344 38.9065 54.0065 40.0002 53.2991C41.094 54.0064 42.7547 54.6344 45.2086 54.6344C47.6486 54.6344 49.7628 53.3391 51.1617 50.987C52.1016 49.407 52.4259 47.8618 52.4599 47.6908C52.6854 46.5525 51.9549 45.44 50.8266 45.2125Z" fill="#818182"/>
<g id="Group">
<path id="Vector_9" d="M34.7917 26.2622C34.7917 26.2622 36.8751 27.313 36.8751 29.4146C36.8751 31.5162 34.7917 31.5162 34.7917 29.4146C34.7917 27.313 34.7917 27.313 34.7917 26.2622Z" fill="#C79A83"/>
<path id="Vector_10" d="M45.2083 26.2622C45.2083 26.2622 43.125 27.313 43.125 29.4146C43.125 31.5162 45.2083 31.5162 45.2083 29.4146C45.2083 27.313 45.2083 27.313 45.2083 26.2622Z" fill="#C79A83"/>
</g>
</g>
</svg>
