<svg width="80" height="80" viewBox="0 0 80 80" fill="none" xmlns="http://www.w3.org/2000/svg">
<g id="Property 1=Bichon Havanais, Property 2=Medium">
<path id="Vector" d="M66.0806 41.0891C65.9181 40.9807 65.7545 40.8758 65.592 40.7742C67.2022 46.1179 66.5024 52.6447 65.2286 58.0551C64.8506 59.6651 62.6789 59.9573 61.8862 58.5064C59.1091 63.5394 54.216 65.8839 48.3856 65.8176C47.3035 66.4675 46.2755 66.6695 45.4167 66.6695C44.7317 66.6695 44.0764 66.2785 43.7715 65.6065C41.1949 66.9988 38.8867 67.0426 36.229 65.6065C35.9243 66.2782 35.2693 66.6695 34.5838 66.6695C33.725 66.6695 32.697 66.4675 31.6149 65.8176C25.211 65.8904 20.6398 63.0837 18.1143 58.5064C17.3224 59.9583 15.1497 59.6647 14.7719 58.0551C13.4979 52.6436 12.7985 46.1174 14.4085 40.7742C14.246 40.8758 14.0824 40.9807 13.9199 41.0891C12.631 41.9492 10.9232 40.8865 11.1282 39.3479C12.3603 30.1099 17.9244 25.6166 24.2812 25.1635C27.7446 23.0219 32.8267 22.4245 36.8971 22.3661C35.7551 21.5074 34.129 20.8326 33.1823 20.5595C32.2253 20.2819 31.6724 19.2821 31.9478 18.3252C32.222 17.3683 33.2195 16.8142 34.1775 17.0884C34.5093 17.1832 35.9368 17.6165 37.4692 18.4538C36.3283 14.1477 34.2385 12.0049 34.2103 11.9755C33.505 11.2714 33.505 10.1271 34.2103 9.423C34.9155 8.71773 36.0575 8.71773 36.7628 9.423C36.905 9.56405 39.2442 11.9575 40.6863 16.5919C42.3553 14.2076 44.2736 12.902 44.4147 12.8083C45.2452 12.2554 46.3657 12.4788 46.9187 13.3082C47.4705 14.1365 47.2493 15.2547 46.4233 15.8088C46.3578 15.8539 42.8823 18.271 42.0055 22.3627C46.38 22.322 52.0115 22.8706 55.7193 25.1635C62.0384 25.614 67.6318 30.0476 68.8723 39.3479C69.077 40.8839 67.3717 41.9506 66.0806 41.0891Z" fill="#ECE2E2"/>
<path id="Vector_2" d="M32.1949 65.7977C26.1475 66.0256 21.014 63.7444 18.1132 58.5024C17.3235 59.9547 15.1497 59.6606 14.7719 58.051C13.4979 52.6395 12.7985 46.1134 14.4085 40.7702C14.246 40.8718 14.0824 40.9767 13.9199 41.0851C12.631 41.9451 10.9232 40.8825 11.1282 39.3439C11.8515 33.9218 14.0034 29.9384 17.5253 27.5055C20.3644 25.5443 23.304 25.1764 24.8036 25.1324C25.5586 25.1098 26.2424 25.5578 26.5268 26.2473C28.1464 26.5186 30.1073 27.1674 30.07 28.793C30.0576 29.2862 29.8443 29.7545 29.4787 30.0862C29.4584 30.1054 27.1598 32.2314 25.5349 35.4237C23.6572 39.1114 23.436 42.6321 24.8725 45.9023H25.1952C26.6262 45.9023 27.4851 47.4909 26.7118 48.6873C25.6805 50.2907 24.8193 52.2886 25.2798 54.1478L26.3597 53.4278C27.4153 52.7249 28.8484 53.2998 29.1244 54.5382C29.4979 56.2038 30.9581 60.8936 33.1924 62.5399C34.5624 63.5492 33.8958 65.7274 32.1949 65.7977Z" fill="#F2A661"/>
<path id="Vector_3" d="M66.0798 41.0851C65.9173 40.9768 65.7537 40.8719 65.5912 40.7703C67.2015 46.114 66.5016 52.6407 65.2278 58.0511C64.8498 59.6614 62.6756 59.9539 61.8865 58.5025C59.0078 63.7046 53.9033 66.0275 47.8048 65.7978C46.1052 65.7277 45.4366 63.5499 46.8073 62.54C49.0416 60.8936 50.5018 56.2039 50.8753 54.536C51.1542 53.3003 52.5863 52.7247 53.6399 53.4279L54.7266 54.1524C55.1952 52.3122 54.3199 50.292 53.2879 48.6874C52.5141 47.4902 53.3742 45.9024 54.8045 45.9024H55.125C58.7179 37.6761 50.6067 30.1642 50.521 30.0863C49.622 29.2707 49.1458 26.9721 53.4729 26.2474C53.7573 25.5579 54.4456 25.1088 55.1961 25.1325C56.6957 25.1765 59.6353 25.5444 62.4744 27.5056C65.9963 29.9385 68.1482 33.9218 68.8715 39.344C69.0762 40.88 67.3709 41.9467 66.0798 41.0851Z" fill="#F2A661"/>
<path id="Vector_4" d="M57.8353 48.5723C57.5182 49.1523 56.9111 49.5134 56.2498 49.5134H54.8054C54.1938 49.5134 53.6228 49.2031 53.2899 48.6896C49.4262 42.727 43.1634 44.0393 43.1002 44.054C42.8249 44.1144 43.1786 44.0969 37.2922 44.0969C36.7978 44.0969 30.6327 42.6378 26.7108 48.6896C26.378 49.2031 25.807 49.5134 25.1954 49.5134H23.751C23.0908 49.5134 22.4826 49.1523 22.1655 48.5723C18.6698 42.1613 20.486 35.3126 24.9708 29.6958C24.6176 29.6688 24.2125 29.653 23.751 29.653C22.148 29.653 21.3371 27.7063 22.4747 26.5712C26.3205 22.7254 34.6962 22.0768 40.0004 22.4265C45.245 22.0807 53.6498 22.6949 57.5261 26.5712C58.6604 27.703 57.8568 29.653 56.2498 29.653C55.7883 29.653 55.3832 29.6688 55.03 29.6958C59.526 35.3189 61.3246 42.1731 57.8353 48.5723Z" fill="#ECE2E2"/>
<path id="Vector_5" d="M23.2734 37.7776C23.7981 37.043 27.4394 32.3611 32.3008 32.3611C36.8146 32.3611 38.62 38.6804 33.2036 41.3886C23.4807 46.25 21.4679 54.027 21.4679 54.027C21.4679 54.027 18.7596 44.0968 23.2734 37.7776Z" fill="#E0B7A3"/>
<path id="Vector_6" d="M56.7266 37.7776C56.2019 37.043 52.5605 32.3611 47.6991 32.3611C43.1854 32.3611 41.3799 38.6804 46.7964 41.3886C56.5193 46.25 58.5321 54.027 58.5321 54.027C58.5321 54.027 61.2403 44.0968 56.7266 37.7776Z" fill="#E0B7A3"/>
<path id="Vector_7" d="M31.4239 39.5832C32.6703 39.5832 33.6807 38.5728 33.6807 37.3263C33.6807 36.0799 32.6703 35.0695 31.4239 35.0695C30.1774 35.0695 29.167 36.0799 29.167 37.3263C29.167 38.5728 30.1774 39.5832 31.4239 39.5832Z" fill="#999999"/>
<path id="Vector_8" d="M48.5762 39.5832C49.8226 39.5832 50.833 38.5728 50.833 37.3263C50.833 36.0799 49.8226 35.0695 48.5762 35.0695C47.3298 35.0695 46.3193 36.0799 46.3193 37.3263C46.3193 38.5728 47.3298 39.5832 48.5762 39.5832Z" fill="#999999"/>
<path id="Vector_9" d="M48.3673 61.4737C48.2917 61.7738 48.1416 62.0503 47.9295 62.2748C46.3982 63.9178 43.3357 66.6656 40 66.6656C36.6666 66.6656 33.6052 63.9201 32.0728 62.2782C31.855 62.0469 31.697 61.7591 31.6237 61.4387C30.8078 58.1358 30.9522 55.4467 32.066 53.2203C32.1969 52.9562 32.3921 52.7294 32.6313 52.5579C34.8747 50.951 38.1945 47.7237 38.1945 45.9024C38.1945 44.9049 39.0025 44.0969 40 44.0969C40.9975 44.0969 41.8055 44.9049 41.8055 45.9024C41.8055 47.7316 45.1253 50.9555 47.3687 52.5579C47.6079 52.7294 47.8031 52.9562 47.934 53.2203C49.0512 55.4557 49.1933 58.1549 48.3673 61.4737Z" fill="#ECE2E2"/>
<path id="Vector_10" d="M56.5999 58.0365C55.9894 58.6244 55.0516 58.7079 54.3452 58.2373L53.6964 57.804C52.3263 61.8893 49.7215 66.6656 45.4171 66.6656C44.8371 66.6656 44.292 66.3869 43.9524 65.9163C43.3363 65.0628 43.7002 64.2958 43.9422 63.5861C44.8227 61.0095 45.8935 57.7476 44.8675 55.1973C43.1737 53.9071 41.2779 52.1657 40.0006 50.4376C38.7241 52.1647 36.829 53.9059 35.1337 55.1973C34.1065 57.7485 35.1875 61.0399 36.0579 63.5838C36.3044 64.3038 36.6712 65.0541 36.0488 65.9163C35.7092 66.3869 35.1642 66.6656 34.5841 66.6656C30.2838 66.6656 27.6779 61.8981 26.3048 57.804L25.656 58.2373C24.9496 58.7079 24.013 58.6244 23.4014 58.0365C23.2411 57.8807 19.5015 54.1671 23.0753 47.7339C25.3356 43.6542 28.7568 41.3105 32.6263 40.5695C34.9622 40.1237 36.8252 40.372 37.4662 40.4859H42.5351C47.1842 39.6593 53.4023 41.3703 56.9271 47.7361C60.4997 54.1671 56.7601 57.8807 56.5999 58.0365Z" fill="#F2F2F2"/>
<path id="Vector_11" d="M35.4863 43.6455C35.4863 42.4054 36.5095 41.5229 37.6152 40.7542C38.3574 40.2383 39.0904 39.8286 39.1212 39.8114C39.6675 39.5071 40.3325 39.5071 40.8789 39.8114C40.9097 39.8286 41.6428 40.2383 42.3849 40.7542C43.4906 41.523 44.5138 42.4054 44.5138 43.6455C44.5138 47.8513 35.4863 47.8653 35.4863 43.6455ZM41.099 44.3481H41.1003H41.099Z" fill="#A07765"/>
</g>
</svg>
