<svg width="80" height="80" viewBox="0 0 80 80" fill="none" xmlns="http://www.w3.org/2000/svg">
<g id="Property 1=Border Collie, Property 2=Medium">
<path id="Vector" d="M60.8977 28.3778C60.5004 28.1798 60.0668 28.0274 59.6004 27.922C61.9066 34.2136 62.5922 39.4751 61.6992 43.9434C61.4725 45.0756 60.2882 45.729 59.2196 45.3378C58.8336 52.0866 56.282 58.3875 50.555 62.0319C50.0019 62.3834 49.3117 62.4174 48.7351 62.1397C46.6379 64.942 42.6841 68.6796 41.4217 68.8602C41.1213 68.9203 40.7295 68.8923 40.3284 68.7161C39.417 68.3107 35.9888 65.4824 33.4872 62.1397C32.9106 62.4174 32.2204 62.3834 31.6673 62.0319C25.9815 58.4131 23.3922 52.1478 23.0027 45.3378C21.9361 45.7283 20.7502 45.0775 20.5231 43.9434C19.6301 39.4751 20.3157 34.2136 22.6218 27.922C22.1554 28.0274 21.7219 28.1798 21.3246 28.3778C19.8911 29.0933 18.2799 27.7935 18.6681 26.2462C19.4954 22.9358 22.78 21.3397 24.8987 20.6413C23.7726 15.0376 23.4386 11.665 24.8589 9.92951C25.4085 9.25805 26.1854 8.88892 27.0491 8.88892C30.7014 8.88892 35.1445 12.2487 36.3277 15.7957C36.4402 16.1344 37.0859 16.3617 37.9284 16.4696C39.7431 16.6991 40.6576 16.3332 41.3854 16.4098C42.358 16.6262 45.6086 16.6526 45.8946 15.7957C47.0786 12.2462 51.5234 8.88892 55.1732 8.88892C56.0369 8.88892 56.8138 9.25805 57.3634 9.92951C58.7837 11.665 58.4497 15.0376 57.3236 20.6413C59.4422 21.3397 62.7269 22.9358 63.5542 26.2462C63.9426 27.7942 62.3307 29.0931 60.8977 28.3778Z" fill="#999999"/>
<path id="Vector_2" d="M42.986 33.2632C42.0485 29.5133 45.7984 25.7634 45.7984 22.0135C45.7984 19.03 45.0285 17.373 44.2938 16.4695C42.5382 16.6916 41.3989 16.329 40.8181 16.4121C40.636 16.4713 39.1979 16.6301 37.9283 16.4695C37.1936 17.373 36.4237 19.03 36.4237 22.0135C36.4237 25.7634 40.1736 29.5133 39.2361 33.2632C38.7275 35.2963 31.7363 36.0756 31.7363 41.7004C31.7363 45.5652 32.6738 50.6064 41.111 48.4971C49.5483 50.6064 50.4858 45.5652 50.4858 41.7004C50.4858 36.0756 43.4946 35.2963 42.986 33.2632Z" fill="#F2F2F2"/>
<path id="Vector_3" d="M41.1108 48.4971C32.6794 37.1911 26.1288 47.3498 24.0195 51.4313C25.3695 56.0578 27.9698 59.6788 31.667 62.0318C32.2201 62.3834 32.9103 62.4173 33.4868 62.1396C35.9055 65.3716 39.3886 68.2982 40.328 68.716C40.8452 68.9432 41.3641 68.9487 41.8936 68.716C42.805 68.3106 46.2332 65.4823 48.7348 62.1396C49.3114 62.4173 50.0016 62.3834 50.5547 62.0318C54.2518 59.6788 56.8522 56.0578 58.2021 51.4313C56.0928 47.3498 49.5422 37.1911 41.1108 48.4971Z" fill="#ECE2E2"/>
<path id="Vector_4" d="M34.5488 33.2633C35.5844 33.2633 36.4238 32.4238 36.4238 31.3883C36.4238 30.3528 35.5844 29.5133 34.5488 29.5133C33.5133 29.5133 32.6738 30.3528 32.6738 31.3883C32.6738 32.4238 33.5133 33.2633 34.5488 33.2633Z" fill="#A07765"/>
<path id="Vector_5" d="M48.2036 37.9922C47.1928 38.2169 46.5549 39.2155 46.7795 40.2264C46.9565 41.0483 47.2214 43.6567 46.1539 44.8223C45.6398 45.3835 44.7448 45.6093 43.4905 45.4942C43.3276 45.1926 43.1759 44.5827 43.0822 43.9044C45.2418 42.4663 45.6282 39.2718 43.1404 38.265C42.0914 37.8405 40.1334 37.8394 39.0822 38.265C36.5886 39.2741 36.9888 42.4715 39.1402 43.9043C39.0459 44.5793 38.8935 45.1926 38.7317 45.4944C37.4777 45.609 36.5827 45.3834 36.0688 44.8223C35.0017 43.6573 35.2659 41.0502 35.4429 40.2272C35.6644 39.2181 35.0275 38.2195 34.0182 37.9952C33.008 37.7706 32.0058 38.4078 31.7811 39.4187C31.6666 39.9339 30.7362 44.5336 33.2908 47.3412C34.8567 49.0623 37.16 49.4748 39.4687 49.1855C39.9827 49.1213 40.5676 48.9232 41.1112 48.4521C41.6548 48.9232 42.2396 49.1213 42.7536 49.1855C45.0684 49.4753 47.3689 49.0588 48.9316 47.3412C51.4862 44.5336 50.5558 39.9339 50.4413 39.4187C50.2166 38.4079 49.2144 37.7674 48.2036 37.9922Z" fill="#818182"/>
<path id="Vector_6" d="M47.6738 33.2633C48.7094 33.2633 49.5488 32.4238 49.5488 31.3883C49.5488 30.3528 48.7094 29.5133 47.6738 29.5133C46.6383 29.5133 45.7988 30.3528 45.7988 31.3883C45.7988 32.4238 46.6383 33.2633 47.6738 33.2633Z" fill="#A07765"/>
</g>
</svg>
