<svg width="80" height="80" viewBox="0 0 80 80" fill="none" xmlns="http://www.w3.org/2000/svg">
<g id="Property 1=Boxer, Property 2=Medium">
<path id="Vector" d="M16.165 38.1734C15.3458 39.265 16.1212 40.8384 17.4975 40.8384C18.6457 40.8384 19.4941 40.2024 20.1042 39.4518C19.1444 49.4666 24.6484 48.6304 24.9741 55.8561C24.9444 61.9102 24.7478 66.6556 30.8225 66.6556C32.186 66.6556 32.8389 65.2543 33.7061 63.695C34.3609 64.3924 35.2832 64.99 36.6522 64.99C38.4594 64.99 39.3359 64.6048 40.0001 64.228C40.6643 64.6048 41.5408 64.99 43.348 64.99C44.7169 64.99 45.6393 64.3924 46.2941 63.695C47.2386 65.3934 47.8656 66.6556 49.1777 66.6556C50.1739 66.6556 53.2043 66.6556 54.3755 63.6096C54.8783 62.3031 54.9813 60.624 55.0022 58.4399C55.0074 58.3471 55.03 56.6344 55.0261 55.8561C55.3534 48.5933 60.8598 49.5076 59.896 39.4518C60.506 40.2024 61.3544 40.8384 62.5027 40.8384C63.87 40.8384 64.6602 39.2727 63.8352 38.1734C62.1689 35.9524 66.6667 29.9043 66.6667 23.3493C66.6667 16.2136 59.5899 13.3556 52.5089 13.3556C50.2687 13.3556 48.7051 14.0562 47.6297 14.913C44.0176 13.4296 41.1981 15.0212 39.9834 15.0212C38.8474 15.0212 35.9709 13.435 32.3705 14.913C31.2951 14.0562 29.7315 13.3556 27.4912 13.3556C20.412 13.3556 13.3334 16.2126 13.3334 23.3493C13.3334 29.902 17.8293 35.955 16.165 38.1734Z" fill="#A07765"/>
<path id="Vector_2" d="M19.9961 41.6657C19.9961 48.8927 24.0405 49.2748 24.8357 54.4129C24.9617 55.2249 25.6602 55.8235 26.4816 55.8235H26.6794C27.5715 55.8235 28.3054 55.1208 28.344 54.2297C28.6407 47.3018 30.7924 43.0388 34.7389 41.5595C37.1239 40.6653 38.8603 39.7794 40.0002 38.8622C41.1401 39.7794 42.8766 40.6653 45.2615 41.5595C49.2091 43.0388 51.3598 47.3018 51.6565 54.2287C51.695 55.1208 52.4289 55.8235 53.3211 55.8235H53.5189C54.3402 55.8235 55.0398 55.2249 55.1647 54.4129C55.9565 49.2976 60.0044 48.8634 60.0044 41.6657C60.0044 38.8004 59.3435 35.3967 58.573 33.2803C57.5991 30.2936 55.8986 26.8707 55.3521 26.3305L49.3277 20.3051C48.699 19.6774 48.6407 18.6957 49.1903 18.0221C49.5375 17.6055 49.6524 17.1194 49.5724 16.6532C49.4504 15.932 48.9734 15.5494 48.2576 15.1916C44.3554 13.2405 41.2569 15.0157 39.9836 15.0157C38.7401 15.0157 35.2866 13.0618 31.213 15.5039C30.3403 16.0275 30.1344 17.2108 30.7893 17.9972C31.3932 18.7375 31.2719 19.7069 30.6727 20.3051C24.0961 26.8828 24.5529 26.4 24.4131 26.6251C22.0421 30.4473 19.9961 36.4157 19.9961 41.6657Z" fill="#C79A83"/>
<path id="Vector_3" d="M32.2612 61.6344C32.8848 62.3913 33.7943 64.9844 36.6522 64.9844C38.4584 64.9844 39.3359 64.5992 40.0001 64.2234C40.6632 64.5992 41.5418 64.9844 43.348 64.9844C46.2 64.9844 47.1093 62.404 47.739 61.6344C48.1783 61.0962 48.2377 60.3404 47.8879 59.7408C45.7965 56.1566 43.2252 52.4922 40.0168 52.4922C36.5506 52.4922 33.868 56.7319 32.1123 59.7408C31.7625 60.3404 31.8219 61.0962 32.2612 61.6344Z" fill="#AAAAAA"/>
<path id="Vector_4" d="M24.9852 57.5411C25.0327 62.01 24.892 66.65 30.8222 66.65C32.1802 66.65 32.7945 65.3286 33.9057 63.3322C34.8996 61.546 38.0052 55.8234 40.0164 55.8234C41.9872 55.8234 45.1301 61.6001 46.0939 63.3322C47.2346 65.3814 47.8395 66.65 49.1774 66.65C50.1736 66.65 53.204 66.65 54.3752 63.6039C55.0194 61.9301 54.9933 59.5373 55.0144 57.5411C55.0807 52.7574 54.7609 47.3479 52.1672 43.1896C50.8126 41.0144 48.9647 39.486 46.9538 38.6508C46.3641 38.3955 42.7226 37.1245 41.6821 35.8775C41.7123 34.601 40.3673 33.7839 39.2378 34.3462C38.6413 34.6439 38.3029 35.2519 38.3175 35.8775C38.0604 36.1857 37.0433 37.1372 33.5684 38.4405C30.488 39.5956 28.3509 41.8136 26.985 44.7636C24.8728 49.3181 24.9477 54.8344 24.9852 57.5411Z" fill="#999999"/>
<path id="Vector_5" d="M49.433 40.1113C51.0269 41.3553 52.1965 42.9824 53.0307 44.798C54.8057 41.3043 55.9549 34.1661 51.6764 30.839C51.6764 30.839 47.0751 27.59 45.8467 32.5046C45.1919 35.1248 48.1432 36.7155 49.433 40.1113Z" fill="#A07765"/>
<path id="Vector_6" d="M26.9851 44.7636C27.8127 42.9762 28.9787 41.3376 30.6152 40.0749C31.9112 36.7041 34.8396 35.1155 34.1869 32.5046C32.9585 27.59 28.3572 30.839 28.3572 30.839C24.0922 34.1557 25.2206 41.2575 26.9851 44.7636Z" fill="#A07765"/>
<path id="Vector_7" d="M31.6884 55.8236C35.0196 55.8236 34.1868 52.4923 40.0165 52.4923C45.8462 52.4923 45.0134 55.8236 48.3446 55.8236C51.2158 55.8236 54.6886 52.7765 52.8002 45.226C52.8783 45.0907 52.9553 44.9481 53.0303 44.7982C51.7926 42.1045 49.8529 39.9313 47.1194 38.7238C46.4073 38.4014 42.7335 37.1376 41.6821 35.8777C41.6967 35.2604 41.3667 34.6607 40.7858 34.3599C39.8392 34.1017 40.0501 34.1976 40.0238 34.1715C39.9792 34.1625 39.2933 34.3473 39.2472 34.3599C38.6663 34.6607 38.3363 35.2604 38.3509 35.8777C38.0938 36.1858 37.0767 37.1373 33.6018 38.4407C30.6781 39.5357 28.4565 41.5857 26.9851 44.7638C27.0663 44.9262 27.1496 45.0803 27.2328 45.226C25.3444 52.7765 28.8173 55.8236 31.6884 55.8236Z" fill="#AAAAAA"/>
<g id="Group">
<path id="Vector_8" d="M40.016 26.675C40.016 30.839 40.016 25.8422 44.1801 26.675C48.3442 27.5078 50.0098 27.5078 46.6785 25.8422C46.6785 25.8422 40.016 22.5109 40.016 26.675Z" fill="#A07765"/>
<path id="Vector_9" d="M35.8523 26.675C40.0164 25.8422 40.0164 30.839 40.0164 26.675C40.0164 22.5109 33.3539 25.8422 33.3539 25.8422C30.0226 27.5078 31.6882 27.5078 35.8523 26.675Z" fill="#A07765"/>
<path id="Vector_10" d="M37.5491 22.2392C40.0164 21.6854 40.0164 25.0114 40.0164 22.2392C40.0164 19.468 36.0688 21.6854 36.0688 21.6854C34.0961 22.794 35.083 22.794 37.5491 22.2392Z" fill="#A07765"/>
<path id="Vector_11" d="M40.0162 22.2392C40.0162 25.0114 40.0162 21.6854 42.4834 22.2392C44.9495 22.794 45.9364 22.794 43.9637 21.6854C43.9637 21.6854 40.0162 19.468 40.0162 22.2392Z" fill="#A07765"/>
</g>
<path id="Vector_12" d="M33.3544 44.5804C33.3544 45.8671 34.2997 47.1299 36.5139 48.8028C37.8225 49.7918 39.1113 50.56 39.1654 50.5923C39.6901 50.9046 40.3438 50.9046 40.8685 50.5923C40.9226 50.56 42.2114 49.7918 43.52 48.8028C45.7342 47.1299 46.6794 45.8671 46.6794 44.5804C46.6794 43.2053 45.8445 41.93 44.3892 41.0805C40.3558 38.728 33.3544 40.3767 33.3544 44.5804Z" fill="#818182"/>
<path id="Vector_13" d="M51.2598 37.5015C50.1099 37.5015 49.1777 36.5693 49.1777 35.4194C49.1777 34.2696 50.1099 33.3374 51.2598 33.3374C52.4096 33.3374 53.3418 34.2696 53.3418 35.4194C53.3418 36.5693 52.4096 37.5015 51.2598 37.5015Z" fill="#818182"/>
<path id="Vector_14" d="M28.7405 37.5015C27.5906 37.5015 26.6584 36.5693 26.6584 35.4194C26.6584 34.2696 27.5906 33.3374 28.7405 33.3374C29.8904 33.3374 30.8225 34.2696 30.8225 35.4194C30.8225 36.5693 29.8904 37.5015 28.7405 37.5015Z" fill="#818182"/>
</g>
</svg>
