<svg width="80" height="80" viewBox="0 0 80 80" fill="none" xmlns="http://www.w3.org/2000/svg">
<g id="Property 1=Chesapeake Bay Retriver, Property 2=Medium">
<path id="Vector" d="M73.3332 32.2464C73.3332 36.4821 73.1978 38.3826 69.7915 42.9637C66.1027 47.9249 67.0419 56.505 61.5233 56.505C58.5843 56.505 57.0793 54.2332 56.4985 51.3393C54.2914 54.4017 54.6685 56.226 54.5259 57.2378C54.3802 61.2017 47.6584 67.971 39.9998 67.971C32.3466 67.971 25.6196 61.2042 25.4738 57.2378C25.3278 56.202 25.7127 54.4247 23.4998 51.3485C22.9308 54.171 21.6483 55.8522 19.6717 56.35C17.6886 56.8504 15.9686 56.1293 14.8267 54.3195C13.0786 51.5425 12.8119 46.4655 10.2082 42.9637C6.80192 38.3826 6.6665 36.4821 6.6665 32.2464C6.6665 29.9912 10.2173 24.6115 12.4569 21.7509C15.4608 17.9105 19.9673 13.3333 24.3748 13.3333C25.7121 13.3333 27.0597 14.2566 28.8787 15.9851C31.4622 14.8231 37.1289 13.3333 39.9998 13.3333C42.864 13.3333 48.5311 14.8204 51.1209 15.9851C52.9399 14.2566 54.2876 13.3333 55.6248 13.3333C60.0324 13.3333 64.5389 17.9105 67.5428 21.7509C69.7824 24.6115 73.3332 29.9912 73.3332 32.2464Z" fill="#CD9757"/>
<path id="Vector_2" d="M60.8332 36.4492C60.8332 39.0591 60.3595 42.9765 60.3162 46.4535C60.3045 47.4432 59.7019 47.9163 59.2095 48.4131C58.9794 48.655 55.1174 51.7851 54.6327 55.6407C54.5636 56.1804 54.5967 56.384 54.5702 56.8136C54.5702 56.8912 54.5259 57.2405 54.5259 57.2444C53.6942 63.1388 44.47 64.0176 39.9998 60.6106C35.2838 64.2049 25.4165 63.0028 25.4165 56.413C25.4165 53.541 23.241 50.5781 21.1483 48.7348C20.3204 48 19.6953 47.4463 19.6834 46.4535C19.6405 42.9997 19.1665 39.0413 19.1665 36.4492C19.1665 31.1162 23.1988 22.2667 23.7498 21.529C27.1687 16.9309 26.9225 17.2463 27.0688 17.1015C28.9045 15.2468 37.2162 13.3333 39.9998 13.3333C42.7431 13.3333 51.0901 15.2417 52.9308 17.1015C53.0774 17.2466 52.8216 16.9183 56.2498 21.529C56.7113 22.1468 60.8332 30.9601 60.8332 36.4492Z" fill="#DBA96D"/>
<path id="Vector_3" d="M37.9165 52.21H42.0832V62.7173H37.9165V52.21Z" fill="#CD9757"/>
<path id="Vector_4" d="M33.4895 29.0942C33.4895 29.0942 26.4582 30.145 25.4165 35.3986C24.3749 40.6522 29.3228 45.9058 29.3228 45.9058C29.3228 45.9058 35.5728 41.7029 35.5728 37.5C35.5728 33.2971 37.6561 30.145 33.4895 29.0942Z" fill="#CD9757"/>
<path id="Vector_5" d="M46.5104 29.0942C46.5104 29.0942 53.5417 30.145 54.5833 35.3986C55.625 40.6522 50.6771 45.9058 50.6771 45.9058C50.6771 45.9058 44.4271 41.7029 44.4271 37.5C44.4271 33.2971 42.3437 30.145 46.5104 29.0942Z" fill="#CD9757"/>
<path id="Vector_6" d="M30.1042 37.5C31.5424 37.5 32.7083 36.3239 32.7083 34.8731C32.7083 33.4224 31.5424 32.2463 30.1042 32.2463C28.6659 32.2463 27.5 33.4224 27.5 34.8731C27.5 36.3239 28.6659 37.5 30.1042 37.5Z" fill="#A07765"/>
<path id="Vector_7" d="M49.8957 37.5C51.3339 37.5 52.4998 36.3239 52.4998 34.8731C52.4998 33.4224 51.3339 32.2463 49.8957 32.2463C48.4574 32.2463 47.2915 33.4224 47.2915 34.8731C47.2915 36.3239 48.4574 37.5 49.8957 37.5Z" fill="#A07765"/>
<path id="Vector_8" d="M38.9585 23.8403C38.9585 23.8403 41.0418 21.7389 41.0418 23.8403C41.0418 25.9418 40.0002 29.094 40.0002 29.094C40.0002 29.094 38.9585 24.8911 38.9585 23.8403Z" fill="#CD9757"/>
<path id="Vector_9" d="M47.2918 49.0577C47.2918 51.4148 44.0309 56.4128 40.0002 56.4128C35.8916 56.4128 32.7085 51.3245 32.7085 49.0577C32.7085 43.4163 47.2918 43.4178 47.2918 49.0577Z" fill="#AA7000"/>
</g>
</svg>
