<svg width="80" height="80" viewBox="0 0 80 80" fill="none" xmlns="http://www.w3.org/2000/svg">
<g id="Property 1=Doberman Pinscher, Property 2=Medium">
<path id="Vector" d="M61.5458 19.9914C59.5465 31.0471 60.9643 26.629 60.9643 32.4227C60.9643 33.7974 60.8404 35.2664 60.5939 36.7153C60.0803 39.7382 62.5384 41.9978 55.3238 48.441C53.9196 49.6928 51.6995 48.3943 52.1195 46.4815C52.5587 44.4792 52.7722 42.4014 52.7722 40.1287C52.7722 35.6047 50.8879 32.3988 47.1733 30.6003C46.162 30.1119 45.7504 28.8513 46.2802 27.8308C46.9034 26.6372 49.1251 22.4251 51.5663 18.3325C56.0034 10.8893 57.7711 9.46811 59.0212 9.04049C59.929 8.73109 60.8392 8.89962 61.5188 9.5071C63.1099 10.9271 62.6769 13.7481 61.5458 19.9914Z" fill="#777777"/>
<path id="Vector_2" d="M32.8268 30.6002C29.1122 32.3988 27.228 35.6047 27.228 40.1287C27.228 42.4014 27.4414 44.4792 27.8806 46.4814C28.2961 48.3734 26.1039 49.7137 24.6763 48.441C17.4635 41.9993 19.9189 39.7333 19.4063 36.7153C18.9021 33.7596 18.9131 30.716 19.4357 28.5728C19.7645 27.2258 19.0064 23.0439 18.4543 19.9914C17.3233 13.7481 16.8902 10.927 18.4813 9.50707C19.186 8.87972 20.1027 8.74099 20.979 9.04045C22.229 9.46808 23.9967 10.8893 28.4339 18.3325C30.8738 22.4238 33.0967 26.6372 33.7199 27.8308C34.2488 28.842 33.8428 30.1096 32.8268 30.6002Z" fill="#777777"/>
<path id="Vector_3" d="M26.7051 48.7855C26.0331 49.0696 25.2431 48.9463 24.6761 48.4409C17.4632 41.9992 19.9187 39.7332 19.406 36.7152C18.9018 33.7595 18.9129 30.7159 19.4355 28.5727C19.7642 27.2257 19.0061 23.0438 18.4541 19.9913C17.3514 13.9041 16.7565 10.6184 18.7718 9.28308C22.8274 11.1068 27.013 19.7712 25.2649 26.0422C23.8554 31.1007 27.002 42.9069 26.7051 48.7855Z" fill="#F2A661"/>
<path id="Vector_4" d="M53.2945 48.7855C53.9666 49.0696 54.7566 48.9463 55.3236 48.4409C62.5364 41.9992 60.081 39.7332 60.5936 36.7152C61.0978 33.7595 61.0868 30.7159 60.5642 28.5727C60.2354 27.2257 60.9935 23.0438 61.5456 19.9913C62.6483 13.9041 63.2433 10.6184 61.2279 9.28308C57.1723 11.1068 52.9866 19.7712 54.7347 26.0422C56.1443 31.1007 52.9977 42.9069 53.2945 48.7855Z" fill="#F2A661"/>
<path id="Vector_5" d="M56.6983 40.1288C56.6983 51.2544 51.7913 56.194 51.7913 59.2461C51.7913 64.243 50.7747 72.3263 45.903 72.3263C43.6976 72.3263 41.5199 71.1375 40.0011 69.5141C38.4571 71.1525 36.2964 72.3263 34.098 72.3263C29.2257 72.3263 28.2097 64.2408 28.2097 59.2461C28.2097 56.1991 23.3027 51.2484 23.3027 40.1288C23.3027 32.3862 27.5706 28.6936 31.1514 26.9605C36.4476 24.394 43.5742 24.4044 48.8508 26.9605C52.4304 28.6948 56.6983 32.3862 56.6983 40.1288Z" fill="#777777"/>
<path id="Vector_6" d="M56.6983 40.1288C56.6983 51.3971 51.7913 56.1299 51.7913 59.2461C51.7913 64.1631 50.806 72.1789 46.0293 72.3238C43.7921 72.3785 41.5421 71.1619 39.9999 69.5141C38.5852 71.0365 36.495 72.2204 34.4403 72.3163C29.3097 72.6753 28.2097 64.4939 28.2097 59.2461C28.2097 56.1491 23.3027 51.3877 23.3027 40.1288C23.3027 24.5962 41.3173 22.2319 50.2248 27.7126C54.4595 30.3173 56.6983 34.6111 56.6983 40.1288Z" fill="#777777"/>
<path id="Vector_7" d="M54.3057 52.5247C53.0866 55.5315 51.7627 57.675 51.7627 59.2459C51.7627 64.1427 50.785 72.1457 46.0289 72.3237C43.7917 72.3784 41.5417 71.1618 39.9995 69.5139C38.5848 71.0364 36.4946 72.2203 34.4399 72.3161C29.3093 72.6752 28.2093 64.4938 28.2093 59.2459C28.2093 57.6749 26.8869 55.5349 25.6663 52.5247C27.3285 54.6012 29.5366 56.7795 31.1535 56.2274C34.0976 55.2212 33.1162 51.1965 35.079 51.1965C37.0418 51.1965 32.1349 59.2459 39.986 59.2459C47.8371 59.2459 42.9302 51.1965 44.893 51.1965C46.8557 51.1965 45.8743 55.2212 48.8185 56.2274C50.4354 56.7795 52.6435 54.6012 54.3057 52.5247Z" fill="#F2A661"/>
<path id="Vector_8" d="M45.8743 72.3263C45.7075 72.3263 45.5394 72.32 45.3714 72.3062C42.1968 73.6539 37.8776 73.6973 34.6006 72.3062C36.6356 72.1391 38.6136 71.0056 39.9995 69.514C41.5407 71.1609 43.7123 72.3157 45.8743 72.3263Z" fill="#C79A83"/>
<path id="Vector_9" d="M45.8739 59.2461C45.8739 61.1926 43.5507 66.2893 39.9855 66.2893C36.4675 66.2893 34.0972 61.2423 34.0972 59.2461C34.0972 53.8882 45.8739 53.8715 45.8739 59.2461Z" fill="#818182"/>
<path id="Vector_10" d="M32.1344 45.1597C33.2184 45.1597 34.0972 44.2587 34.0972 43.1474C34.0972 42.036 33.2184 41.135 32.1344 41.135C31.0504 41.135 30.1716 42.036 30.1716 43.1474C30.1716 44.2587 31.0504 45.1597 32.1344 45.1597Z" fill="#A07765"/>
<path id="Vector_11" d="M47.8656 45.1597C48.9496 45.1597 49.8284 44.2587 49.8284 43.1474C49.8284 42.036 48.9496 41.135 47.8656 41.135C46.7816 41.135 45.9028 42.036 45.9028 43.1474C45.9028 44.2587 46.7816 45.1597 47.8656 45.1597Z" fill="#A07765"/>
<g id="Group">
<path id="Vector_12" d="M34.5883 42.141C35.4013 42.141 36.0604 41.4653 36.0604 40.6318C36.0604 39.7982 35.4013 39.1225 34.5883 39.1225C33.7753 39.1225 33.1162 39.7982 33.1162 40.6318C33.1162 41.4653 33.7753 42.141 34.5883 42.141Z" fill="#F2A661"/>
<path id="Vector_13" d="M45.3837 42.141C46.1967 42.141 46.8558 41.4653 46.8558 40.6318C46.8558 39.7982 46.1967 39.1225 45.3837 39.1225C44.5707 39.1225 43.9116 39.7982 43.9116 40.6318C43.9116 41.4653 44.5707 42.141 45.3837 42.141Z" fill="#F2A661"/>
</g>
</g>
</svg>
