<svg width="80" height="80" viewBox="0 0 80 80" fill="none" xmlns="http://www.w3.org/2000/svg">
<g id="Property 1=Dvergpinscher, Property 2=Medium">
<path id="Vector" d="M60.5805 23.5373L54.0625 40C54.0625 40.4845 57.1398 40.9577 57.0549 41.4179C62.4051 40.7088 66.6667 36.1656 66.6667 30.625V21.25L60.5805 23.5373Z" fill="#C47F40"/>
<path id="Vector_2" d="M19.235 23.3755L13.3333 21.25V30.625C13.3333 36.1656 17.5948 40.7088 22.945 41.4179L25.9374 40L19.235 23.3755Z" fill="#C47F40"/>
<path id="Vector_3" d="M46.2147 47.8125H40H33.7853C32.7961 49.1214 32.1875 50.7328 32.1875 52.5C32.1875 56.8146 35.6852 60.3125 40 60.3125C44.3148 60.3125 47.8125 56.8146 47.8125 52.5C47.8125 50.7328 47.2039 49.1214 46.2147 47.8125Z" fill="#C47F40"/>
<path id="Vector_4" d="M47.8125 52.5C47.8125 50.7328 47.2039 49.1214 46.2147 47.8125H40V60.3125C44.3148 60.3125 47.8125 56.8146 47.8125 52.5Z" fill="#C47F40"/>
<path id="Vector_5" d="M65.1041 19.6875C58.9227 19.6875 53.1439 23.0185 50.0997 28.3026C47.1838 26.7691 43.5918 26.0023 39.9999 26.0023C36.408 26.0023 32.8161 26.7691 29.9001 28.3026C26.856 23.0185 21.0771 19.6875 14.8958 19.6875C14.0321 19.6875 13.3333 20.3864 13.3333 21.25C19.0464 25.3619 22.8124 33.0475 22.8124 40C22.8124 40.4845 22.8601 40.9577 22.945 41.4179C23.5565 44.7375 26.2704 47.3307 29.6515 47.7515C29.3753 48.4992 29.1631 49.3337 29.0899 50.2402C28.8351 53.446 30.8111 56.2919 33.7881 57.0059C34.2917 57.1265 34.7968 57.1845 35.2926 57.1845C37.1278 57.1845 38.8218 56.3552 39.9999 55.0025C41.178 56.3552 42.872 57.1845 44.7072 57.1845C45.2031 57.1845 45.7081 57.1265 46.2117 57.0059C49.1887 56.2919 51.1647 53.446 50.9099 50.2386C50.8367 49.3337 50.6246 48.4992 50.3484 47.7515C53.7293 47.3307 56.4432 44.7375 57.0548 41.4179C57.3056 40.0576 56.94 28.2503 66.6666 21.25C66.6666 20.3864 65.9677 19.6875 65.1041 19.6875Z" fill="#E3B26B"/>
<path id="Vector_6" d="M46.2119 57.0059C49.1889 56.2919 51.1649 53.446 50.9101 50.2386C50.8369 49.3338 50.6248 48.4992 50.3485 47.7515C53.7295 47.3307 56.4434 44.7375 57.055 41.4179C57.3057 40.0576 56.9401 28.2503 66.6667 21.25C66.6667 20.3864 65.9678 19.6875 65.1042 19.6875C58.9228 19.6875 53.144 23.0185 50.0998 28.3026C47.1839 26.7691 43.5919 26.0023 40 26.0023V55.0024C41.1781 56.3551 42.8721 57.1844 44.7073 57.1844C45.2032 57.1845 45.7083 57.1265 46.2119 57.0059Z" fill="#E3B26B"/>
<path id="Vector_7" d="M30.625 41.5625C31.4879 41.5625 32.1875 40.8629 32.1875 40C32.1875 39.1371 31.4879 38.4375 30.625 38.4375C29.7621 38.4375 29.0625 39.1371 29.0625 40C29.0625 40.8629 29.7621 41.5625 30.625 41.5625Z" fill="#463F3F"/>
<path id="Vector_8" d="M49.375 41.5625C50.2379 41.5625 50.9375 40.8629 50.9375 40C50.9375 39.1371 50.2379 38.4375 49.375 38.4375C48.5121 38.4375 47.8125 39.1371 47.8125 40C47.8125 40.8629 48.5121 41.5625 49.375 41.5625Z" fill="#463F3F"/>
<g id="Group">
<path id="Vector_9" d="M40.7812 46.252H40H39.2188C36.7343 46.2153 35.3125 46.85 35.3125 49.375C35.3125 51.9597 37.4152 54.0625 40 54.0625C42.5848 54.0625 44.6875 51.9597 44.6875 49.375C44.6875 46.8336 43.2654 46.2368 40.7812 46.252Z" fill="#463F3F"/>
<path id="Vector_10" d="M44.6875 49.375C44.6875 46.8336 43.2654 46.2368 40.7812 46.2521H40V54.0625C42.5848 54.0625 44.6875 51.9598 44.6875 49.375Z" fill="#352C2C"/>
</g>
</g>
</svg>
