<svg width="80" height="80" viewBox="0 0 80 80" fill="none" xmlns="http://www.w3.org/2000/svg">
<g id="Property 1=Engelsk Setter, Property 2=Medium">
<path id="Vector" d="M73.3332 30.5316C73.3332 36.5591 71.1978 42.2914 67.1587 47.1076C64.1092 50.7441 61.0389 52.5947 60.91 52.6715C58.283 54.2402 55.3245 49.4564 54.3774 46.655C53.7268 47.5017 52.7286 48.7456 52.3931 49.6913C51.309 52.734 51.5168 58.0605 48.2238 59.603C45.7978 60.7238 42.1863 59.2486 39.9998 57.7853C37.8332 59.2353 34.189 60.7337 31.7759 59.603C28.4836 58.0608 28.6884 52.7273 27.6066 49.6913C27.2703 48.7435 26.2901 47.5242 25.6222 46.655C24.6785 49.4466 21.7195 54.2419 19.0897 52.6715C18.9608 52.5947 15.8905 50.7441 12.841 47.1076C8.80192 42.2914 6.6665 36.5591 6.6665 30.5316C6.6665 22.4742 13.136 20.6147 19.6665 18.0679C24.1617 16.3186 28.582 14.4388 31.2537 16.3747C33.6066 15.7331 37.556 15.751 39.9998 15.8892C42.4356 15.7518 46.3885 15.7318 48.7459 16.3747C51.5304 14.3571 56.3317 16.5107 60.3332 18.0679C66.35 20.4044 73.3332 22.2569 73.3332 30.5316Z" fill="#FCF3E9"/>
<path id="Vector_2" d="M17.7567 38.7056C21.0281 35.4027 20.8521 35.5211 21.1679 35.3996C21.4139 35.2551 23.9043 33.6437 24.6765 27.3401C25.0988 23.8852 26.1839 21.1542 27.9005 19.2232C29.2501 17.705 30.5089 17.241 30.7478 17.163C31.2807 16.9894 31.8785 17.1082 32.2902 17.4809C32.3693 17.5524 34.249 19.2685 35.8353 22.2345C37.9365 26.1626 38.5503 30.474 37.6098 34.7017C37.0826 37.0718 35.8218 38.7517 33.7554 39.8363C32.0363 40.7389 30.0789 41.051 28.2619 41.3629C23.8211 42.1046 20.4286 42.998 18.5158 41.6957C17.5223 41.0184 16.9294 39.5426 17.7567 38.7056Z" fill="#818181"/>
<path id="Vector_3" d="M33.04 19.8693C29.5119 25.2974 29.7201 25.0871 29.3185 25.3389C29.021 25.6036 26.0558 28.4899 26.9322 37.3937C27.4137 42.2735 26.7494 46.3307 24.9594 49.4521C23.5521 51.9062 21.9448 52.8814 21.6367 53.0526C20.9492 53.4339 20.081 53.429 19.3931 53.0242C19.261 52.9467 16.1157 51.0787 12.9918 47.4081C8.85407 42.5468 6.6665 36.7608 6.6665 30.6767C6.6665 27.2659 7.90035 24.6124 10.4387 22.5659C12.5505 20.863 15.1764 19.9115 17.607 18.9976C23.5539 16.7926 27.9958 14.6571 31.0592 15.9452C32.6505 16.6154 33.9317 18.4942 33.04 19.8693Z" fill="#FCEAD3"/>
<path id="Vector_4" d="M73.3332 30.6778C73.3332 36.7616 71.1456 42.5473 67.0079 47.4084C63.8839 51.0788 60.7386 52.9467 60.6066 53.0243C59.9193 53.4286 59.0511 53.4343 58.363 53.0526C58.0548 52.8814 56.4475 51.9063 55.0403 49.4523C53.2502 46.331 52.5859 42.274 53.0674 37.3944C53.9438 28.4911 50.9786 25.605 50.6811 25.3403C50.2799 25.0886 50.479 25.2853 46.9596 19.8709C46.0683 18.4962 47.3483 16.6175 48.9404 15.9469C51.9278 14.6908 56.1603 16.656 62.494 19.0374C64.8323 19.9066 67.4827 20.8917 69.5609 22.5674C72.0993 24.6138 73.3332 27.2672 73.3332 30.6778Z" fill="#FCEAD3"/>
<path id="Vector_5" d="M48.8891 59.7291C46.2091 60.5942 42.3498 59.2227 40.0009 57.8769C37.647 59.2256 33.7854 60.5934 31.1113 59.7303C34.9004 51.2811 31.8427 53.5167 31.8427 46.1914C31.8427 40.5823 40.0009 37.7778 40.0009 37.7778C40.0009 37.7778 48.1592 40.5823 48.1592 46.1914C48.1592 53.5136 45.1035 51.2789 48.8891 59.7291Z" fill="#FFDFBA"/>
<g id="Group">
<path id="Vector_6" d="M47.3216 45.5184C47.3216 48.4766 45.8051 50.8124 43.0504 52.0948L40.9694 53.0635C40.3842 53.3368 39.6867 53.3316 39.1213 53.0683C35.1384 51.2142 38.3001 52.6875 37.026 52.0948C34.2714 50.8124 32.7549 48.4766 32.7549 45.5184C32.7549 44.4721 33.3102 42.6158 37.0286 41.9232C40.928 41.1952 47.3216 41.7847 47.3216 45.5184Z" fill="#999999"/>
<path id="Vector_7" d="M48.3617 33.8931C49.511 33.8931 50.4427 33.0257 50.4427 31.9556C50.4427 30.8856 49.511 30.0182 48.3617 30.0182C47.2124 30.0182 46.2808 30.8856 46.2808 31.9556C46.2808 33.0257 47.2124 33.8931 48.3617 33.8931Z" fill="#999999"/>
<path id="Vector_8" d="M31.7143 33.8931C32.8635 33.8931 33.7952 33.0257 33.7952 31.9556C33.7952 30.8856 32.8635 30.0182 31.7143 30.0182C30.565 30.0182 29.6333 30.8856 29.6333 31.9556C29.6333 33.0257 30.565 33.8931 31.7143 33.8931Z" fill="#999999"/>
</g>
<path id="Vector_9" d="M8.67833 37.2721C9.8313 34.7312 9.75602 34.8337 9.91135 34.7024C10.0212 34.5714 11.1004 33.1587 10.14 29.3677C9.61309 27.2901 9.63061 25.5025 10.1914 24.0549C10.6323 22.9168 11.2561 22.4052 11.3767 22.314C11.6458 22.1106 12.0177 22.0636 12.3387 22.1993C12.4003 22.2253 13.8691 22.8532 15.4474 24.2598C17.5377 26.1228 18.8543 28.4948 19.2543 31.1191C19.4786 32.5903 19.125 33.8047 18.1733 34.8309C17.3815 35.6849 16.3203 36.2437 15.3402 36.7754C12.9402 38.0628 11.1797 39.2351 9.78402 38.8527C9.05895 38.6536 8.38713 37.9156 8.67833 37.2721Z" fill="#818181"/>
<path id="Vector_10" d="M9.34694 33.3864C11.316 31.4205 11.248 31.5236 11.3116 31.343C11.393 31.2 12.313 29.7454 16.3198 29.0244C18.5158 28.6297 20.2176 27.9016 21.3778 26.8608C22.2899 26.0426 22.5301 25.3237 22.5693 25.1877C22.6563 24.8844 22.5529 24.5588 22.2953 24.3481C22.2458 24.3076 21.06 23.3462 19.0861 22.6055C16.4719 21.6243 13.6795 21.4849 11.0115 22.2026C9.51572 22.6049 8.49592 23.3815 7.89443 24.5766C7.39386 25.5709 7.28276 26.6697 7.16538 27.6908C6.89172 30.1852 6.47313 32.106 7.39515 33.105C7.87459 33.6239 8.84786 33.8836 9.34694 33.3864Z" fill="#FCEAD3"/>
</g>
</svg>
