<svg width="80" height="80" viewBox="0 0 80 80" fill="none" xmlns="http://www.w3.org/2000/svg">
<g id="Property 1=Erasier, Property 2=Medium">
<path id="Vector" d="M63.4721 40.486C63.4721 43.9 62.5174 46.4735 62.4768 46.5814C62.1109 47.5507 60.8308 47.9651 59.8463 47.4518C59.1568 50.806 57.2644 54.242 56.962 54.7771C56.4721 55.6436 55.2304 55.919 54.3473 55.392C54.0779 55.235 53.7568 54.9002 53.5551 54.6772C52.4342 56.2412 49.0127 61.0457 47.1274 61.8797C46.3422 62.227 45.401 62.0218 44.8828 61.4185C43.8745 62.4644 41.8181 64.2352 40.2843 64.4242C39.7628 64.4958 39.353 64.3654 38.8681 64.1647C38.8233 64.1241 37.2833 63.6653 35.1171 61.4185C34.5984 62.0224 33.6572 62.2268 32.8726 61.8797C30.989 61.0465 27.5745 56.2536 26.4448 54.6772C25.8759 55.3061 25.3277 55.7767 24.3639 55.6386C23.7906 55.5567 23.2975 55.2363 23.038 54.7771C22.7355 54.242 20.8453 50.809 20.1536 47.4558C19.1679 47.9697 17.8901 47.5538 17.5231 46.5814C17.4825 46.4735 16.5278 43.9 16.5278 40.486C16.5278 36.8625 23.3898 27.7009 24.8932 26.0701C25.3719 25.5505 24.6528 20.2407 24.6528 18.9236C24.6528 17.1775 24.7817 15.3027 26.3715 14.1499C27.1038 13.6148 28.0517 13.3333 29.1667 13.3333C32.1999 13.3333 36.2178 17.5405 38.1752 19.7222H41.8247C43.7721 17.5518 47.7964 13.3333 50.8332 13.3333C52.8364 13.3333 54.2454 14.2383 54.8935 15.7671C55.558 17.3348 55.3427 19.498 55.1869 21.1497C55.146 21.591 54.746 25.6724 55.0627 26.0232C56.1869 27.171 63.4721 36.7087 63.4721 40.486Z" fill="#999999"/>
<path id="Vector_2" d="M31.875 21.3194C30.347 25.3733 25.5883 28.2843 23.6123 27.6324C24.1709 26.9057 24.6539 26.3197 24.9778 25.9793C25.274 24.7929 24.6528 20.1523 24.6528 18.9235C24.6528 17.1775 24.7816 15.3026 26.3714 14.1498C28.9771 15.3897 33.14 17.9622 31.875 21.3194Z" fill="#8E7F81"/>
<path id="Vector_3" d="M56.4306 27.6874C54.3429 28.0787 49.8606 25.2317 48.3868 21.3195C47.1478 18.0302 51.1189 15.4936 53.7313 14.2258C55.2213 15.3954 55.3473 17.2169 55.3473 18.9237C55.3473 20.1599 54.7251 24.7894 55.0223 25.9794C55.354 26.3278 55.8528 26.9357 56.4306 27.6874Z" fill="#8E7F81"/>
<path id="Vector_4" d="M63.4721 40.4859C63.4721 43.9 62.5174 46.4735 62.4768 46.5813C62.1109 47.5506 60.8308 47.9651 59.8463 47.4518C59.1568 50.8059 57.2644 54.242 56.962 54.777C56.4721 55.6435 55.2304 55.9189 54.3473 55.3919C54.0779 55.2349 53.7568 54.9001 53.5551 54.6772C52.4342 56.2412 49.0127 61.0457 47.1274 61.8796C46.3422 62.2269 45.401 62.0218 44.8828 61.4184C43.8545 62.4853 41.5913 64.4442 40 64.4442C38.4088 64.4442 36.1457 62.4854 35.1171 61.4184C34.5984 62.0224 33.6572 62.2267 32.8726 61.8796C30.989 61.0465 27.5745 56.2535 26.4448 54.6772C26.2778 54.8619 26.1051 55.0356 25.9291 55.1913C25.0662 55.9568 23.5917 55.7567 23.038 54.777C22.7355 54.242 20.8453 50.8089 20.1536 47.4558C19.1679 47.9697 17.8901 47.5537 17.5231 46.5813C17.4825 46.4735 16.5278 43.9 16.5278 40.4859C16.5278 37.0321 23.1432 27.8698 24.9778 25.9792C25.0201 25.9359 26.0177 24.0935 31.1325 22.2577L36.4837 19.8908C36.9965 19.665 36.715 19.7221 42.7083 19.7221C43.292 19.7221 43.1276 19.7189 48.8675 22.2577C50.6537 22.8988 54.11 24.4404 54.9804 25.9363C56.2278 27.2237 63.4721 36.7098 63.4721 40.4859Z" fill="#999999"/>
<path id="Vector_5" d="M38.1943 19.7222C38.1943 19.7222 38.1943 28.507 39.9999 28.507C41.8054 28.507 41.8054 19.7222 41.8054 19.7222C40.5425 19.7222 39.4573 19.7222 38.1943 19.7222Z" fill="#494949"/>
<path id="Vector_6" d="M55.3202 41.2847C53.9119 45.6461 47.0068 57.3008 44.0401 62.2122C43.1734 62.9988 42.1702 63.7326 41.1061 64.1638C40.208 64.5368 39.4771 64.6994 37.5864 63.493C37.0084 63.1254 36.4375 62.6707 35.9332 62.2122C32.9664 57.3008 26.0613 45.6461 24.653 41.2847C22.8475 35.6944 28.2641 35.6944 29.1669 33.2986C30.0697 30.9028 30.9724 26.9098 33.6807 26.1111C36.2943 25.3405 39.7463 30.5165 39.9866 30.8818C40.2259 30.5165 43.679 25.3405 46.2925 26.1111C49.0008 26.9098 49.9036 30.9028 50.8064 33.2986C51.7092 35.6944 57.1258 35.6944 55.3202 41.2847Z" fill="#F9EFE6"/>
<path id="Vector_7" d="M47.1952 50.868C47.1952 53.8279 45.6447 59.531 41.106 64.1639C41.1003 64.1699 41.0947 64.1769 41.0879 64.1829C40.4986 64.4195 40.0463 64.5324 39.4369 64.3646C39.3587 64.3409 38.8948 64.1891 38.8671 64.1639C34.3284 59.531 32.7778 53.8279 32.7778 50.868C32.7778 44.4412 39.6547 45.9945 39.9865 46.0734C40.3183 45.9945 47.1952 44.4412 47.1952 50.868Z" fill="#ECE2E2"/>
<path id="Vector_8" d="M33.6806 35.0127C34.6777 35.0127 35.4861 34.2976 35.4861 33.4155C35.4861 32.5334 34.6777 31.8183 33.6806 31.8183C32.6834 31.8183 31.875 32.5334 31.875 33.4155C31.875 34.2976 32.6834 35.0127 33.6806 35.0127Z" fill="#505050"/>
<path id="Vector_9" d="M49.6623 36.4212C48.7287 36.1121 47.688 36.5299 47.3376 37.3559C43.6094 46.1508 43.7847 47.3924 43.4253 47.5254C43.1187 47.6386 42.453 47.5178 41.806 47.2982C41.806 46.6944 41.8273 46.5194 41.7252 46.2279C43.3042 45.324 44.4025 43.2038 42.8759 42.1113C41.8297 41.3625 40.6826 41.9098 40.0004 41.9098C39.3188 41.9098 38.1708 41.3627 37.125 42.1113C35.6135 43.1931 36.6836 45.3165 38.2757 46.2279C38.1738 46.5185 38.1949 46.6895 38.1949 47.2952C37.5744 47.5041 36.8945 47.6422 36.5764 47.5257C36.2113 47.3919 36.4457 46.2788 32.6632 37.3559C32.3129 36.5299 31.2724 36.1117 30.3385 36.4212C29.405 36.731 28.9318 37.6516 29.282 38.4776C29.3087 38.5406 31.9647 44.8186 32.832 47.8876C33.5437 50.4062 36.2214 51.606 40.0003 50.0942C43.3404 51.4305 46.3592 50.7516 47.1686 47.8876C48.0359 44.8186 50.6919 38.5406 50.7186 38.4776C51.069 37.6516 50.596 36.7309 49.6623 36.4212Z" fill="#999999"/>
<path id="Vector_10" d="M46.3195 34.7222C47.3166 34.7222 48.125 34.0071 48.125 33.125C48.125 32.2429 47.3166 31.5278 46.3195 31.5278C45.3223 31.5278 44.5139 32.2429 44.5139 33.125C44.5139 34.0071 45.3223 34.7222 46.3195 34.7222Z" fill="#505050"/>
</g>
</svg>
