<svg width="80" height="80" viewBox="0 0 80 80" fill="none" xmlns="http://www.w3.org/2000/svg">
<g id="Property 1=Flatcoated Retriver, Property 2=Medium">
<path id="Vector" d="M71.1109 32.2464C71.1109 36.4821 70.9845 38.3826 67.8053 42.9637C64.3625 47.9249 65.239 56.505 60.0883 56.505C57.3453 56.505 55.9406 54.2332 55.3986 51.3393C53.3386 54.4017 53.6905 56.226 53.5574 57.2378C53.4214 61.2017 47.1478 67.971 39.9998 67.971C32.8567 67.971 26.5783 61.2042 26.4421 57.2378C26.3059 56.202 26.6651 54.4247 24.5998 51.3485C24.0687 54.171 22.8717 55.8522 21.0269 56.35C19.176 56.8504 17.5706 56.1293 16.5048 54.3195C14.8733 51.5425 14.6244 46.4655 12.1942 42.9637C9.01506 38.3826 8.88867 36.4821 8.88867 32.2464C8.88867 29.9912 12.2027 24.6115 14.293 21.7509C17.0967 17.9105 21.3027 13.3333 25.4164 13.3333C26.6645 13.3333 27.9224 14.2566 29.6201 15.9851C32.0313 14.8231 37.3202 13.3333 39.9998 13.3333C42.673 13.3333 47.9623 14.8204 50.3795 15.9851C52.0772 14.2566 53.335 13.3333 54.5831 13.3333C58.6968 13.3333 62.9029 17.9105 65.7066 21.7509C67.7968 24.6115 71.1109 29.9912 71.1109 32.2464Z" fill="#767676"/>
<path id="Vector_2" d="M59.4446 36.4492C59.4446 39.0591 59.0024 42.9765 58.9621 46.4535C58.9512 47.4432 58.3887 47.9163 57.9291 48.4131C57.7144 48.655 54.1099 51.7851 53.6574 55.6407C53.593 56.1804 53.6239 56.384 53.5991 56.8136C53.5991 56.8912 53.5578 57.2405 53.5578 57.2444C52.7816 63.1388 44.1723 64.0176 40.0001 60.6106C35.5985 64.2049 26.389 63.0028 26.389 56.413C26.389 53.541 24.3585 50.5781 22.4053 48.7348C21.6326 48 21.0492 47.4463 21.0381 46.4535C20.998 42.9997 20.5557 39.0413 20.5557 36.4492C20.5557 31.1162 24.3191 22.2667 24.8334 21.529C28.0244 16.9309 27.7946 17.2463 27.9312 17.1015C29.6445 15.2468 37.4021 13.3333 40.0001 13.3333C42.5605 13.3333 50.351 15.2417 52.069 17.1015C52.2059 17.2466 51.9671 16.9183 55.1668 21.529C55.5975 22.1468 59.4446 30.9601 59.4446 36.4492Z" fill="#525252"/>
<path id="Vector_3" d="M38.0557 52.21H41.9446V62.7173H38.0557V52.21Z" fill="#767676"/>
<path id="Vector_4" d="M33.9236 29.0942C33.9236 29.0942 27.3611 30.145 26.3889 35.3986C25.4167 40.6522 30.0347 45.9058 30.0347 45.9058C30.0347 45.9058 35.868 41.7029 35.868 37.5C35.868 33.2971 37.8125 30.145 33.9236 29.0942Z" fill="#767676"/>
<path id="Vector_5" d="M46.0766 29.0942C46.0766 29.0942 52.6391 30.145 53.6113 35.3986C54.5835 40.6522 49.9654 45.9058 49.9654 45.9058C49.9654 45.9058 44.1321 41.7029 44.1321 37.5C44.1321 33.2971 42.1877 30.145 46.0766 29.0942Z" fill="#767676"/>
<path id="Vector_6" d="M30.7641 37.5C32.1064 37.5 33.1946 36.3239 33.1946 34.8731C33.1946 33.4224 32.1064 32.2463 30.7641 32.2463C29.4217 32.2463 28.3335 33.4224 28.3335 34.8731C28.3335 36.3239 29.4217 37.5 30.7641 37.5Z" fill="#1D1D1D"/>
<path id="Vector_7" d="M49.2362 37.5C50.5786 37.5 51.6668 36.3239 51.6668 34.8731C51.6668 33.4224 50.5786 32.2463 49.2362 32.2463C47.8939 32.2463 46.8057 33.4224 46.8057 34.8731C46.8057 36.3239 47.8939 37.5 49.2362 37.5Z" fill="#1D1D1D"/>
<path id="Vector_8" d="M39.0278 23.8403C39.0278 23.8403 40.9723 21.7389 40.9723 23.8403C40.9723 25.9418 40.0001 29.094 40.0001 29.094C40.0001 29.094 39.0278 24.8911 39.0278 23.8403Z" fill="#767676"/>
<path id="Vector_9" d="M46.8054 49.0577C46.8054 51.4148 43.7619 56.4128 39.9999 56.4128C36.1652 56.4128 33.1943 51.3245 33.1943 49.0577C33.1943 43.4163 46.8054 43.4178 46.8054 49.0577Z" fill="#2B2B2B"/>
</g>
</svg>
