<svg width="80" height="80" viewBox="0 0 80 80" fill="none" xmlns="http://www.w3.org/2000/svg">
<g id="Property 1=Fransk Bulldog, Property 2=Medium">
<path id="Vector" d="M33.0099 31.6417C29.2414 32.5616 24.4491 34.4947 23.1019 38.0186C22.7198 39.0133 21.5071 39.4521 20.535 38.9355C15.8329 36.4214 16.5225 32.9394 17.0251 30.3971C17.4079 28.4688 17.3879 28.315 17.2403 26.1198C17.0014 22.5727 16.6724 17.7148 19.2629 15.0531C20.3739 13.9117 21.8489 13.3333 23.6495 13.3333C26.8474 13.3333 29.5483 15.7964 31.6791 20.6532C33.4899 24.7797 34.264 29.1916 34.3463 29.681C34.4961 30.5696 33.9158 31.4203 33.0099 31.6417Z" fill="#EA8692"/>
<path id="Vector_2" d="M33.0091 31.6417C30.111 32.3492 25.1688 34.0137 23.3918 37.3828C28.156 29.8264 24.6043 31.4594 27.2545 26.3541C29.9589 21.1458 23.6488 13.3333 23.6488 13.3333C26.8466 13.3333 29.5476 15.7964 31.6784 20.6532C33.4891 24.7797 34.2632 29.1916 34.3455 29.681C34.4954 30.5696 33.9151 31.4203 33.0091 31.6417Z" fill="#A07765"/>
<path id="Vector_3" d="M59.2156 38.9355C58.2387 39.4547 57.0293 39.0094 56.6488 38.0186C55.1918 34.2198 49.8158 32.3926 46.7408 31.6417C45.8348 31.4203 45.2545 30.5696 45.4044 29.681C45.4866 29.1916 46.2608 24.7797 48.0715 20.6532C50.2023 15.7964 52.9033 13.3333 56.1011 13.3333C57.9018 13.3333 59.3767 13.9117 60.4878 15.0531C63.7101 18.3639 62.4112 25.1472 62.4112 28.0903C62.4112 31.0164 65.2477 35.7103 59.2156 38.9355Z" fill="#EA8692"/>
<path id="Vector_4" d="M46.7408 31.6417C49.6389 32.3492 54.5811 34.0137 56.358 37.3828C51.5939 29.8264 55.1456 31.4594 52.4954 26.3541C49.791 21.1458 56.1011 13.3333 56.1011 13.3333C52.9033 13.3333 50.2023 15.7964 48.0715 20.6532C46.2608 24.7797 45.4866 29.1916 45.4044 29.681C45.2545 30.5696 45.8348 31.4203 46.7408 31.6417Z" fill="#A07765"/>
<path id="Vector_5" d="M56.085 58.6947C55.9666 64.758 55.0945 68.8889 49.7906 68.8889C48.0666 68.8889 46.9241 68.1977 46.0959 67.3101C44.9855 67.7073 43.7048 68.8889 39.8748 68.8889C36.0485 68.8889 34.7584 67.7052 33.6537 67.3101C32.8255 68.1977 31.6829 68.8889 29.9589 68.8889C24.6551 68.8889 23.7829 64.758 23.6646 58.6936C23.4102 56.6419 17.1761 53.3225 19.2701 48.2791C20.8486 44.4808 18.7407 43.1576 19.1506 39.2025C19.6036 34.8416 22.9254 31.4128 28.7577 29.2882C33.2413 27.6541 37.9908 27.2222 39.8748 27.2222C41.7588 27.2222 46.5083 27.6541 50.9918 29.2882C56.8241 31.4128 60.146 34.8416 60.5989 39.2025C61.0075 43.1449 58.907 44.4956 60.4795 48.2791C62.574 53.3236 56.3395 56.6427 56.085 58.6947Z" fill="#C79A83"/>
<path id="Vector_6" d="M46.9344 67.156C45.213 67.2199 44.5269 68.8889 39.875 68.8889C35.2149 68.8889 34.5379 67.2199 32.8156 67.156C31.4271 67.1046 30.6178 65.6182 31.3654 64.4868C32.6048 62.6258 33.8612 58.4722 39.875 58.4722C45.8914 58.4722 47.1493 62.6319 48.3846 64.4868C49.1309 65.6159 48.326 67.1046 46.9344 67.156Z" fill="#C79A83"/>
<path id="Vector_7" d="M48.0438 41.9792C48.0438 39.2342 54.3539 38.507 54.3539 44.5834C54.3539 50.6597 48.0438 49.7917 45.3395 47.1875C42.6352 44.5834 48.0438 46.3195 48.0438 41.9792Z" fill="#999999"/>
<path id="Vector_8" d="M44.4382 35.0346C44.4382 35.0346 41.7338 38.5068 43.5367 41.111C45.3396 43.7151 48.0439 34.1665 44.4382 35.0346Z" fill="#E0B7A3"/>
<path id="Vector_9" d="M31.7618 41.9792C31.7618 39.2342 25.4517 38.507 25.4517 44.5834C25.4517 50.6597 31.7618 49.7917 34.4661 47.1875C37.1704 44.5834 31.7618 46.3195 31.7618 41.9792Z" fill="#999999"/>
<path id="Vector_10" d="M56.1011 56.7361C56.1011 63.852 55.6481 68.8889 49.791 68.8889C47.312 68.8889 46.0669 67.4425 45.3458 66.3553C44.1652 64.5763 43.7184 62.775 41.678 62.1701C40.6587 61.8676 39.0937 61.867 38.0722 62.1701C36.036 62.7738 35.586 64.5691 34.4056 66.3553C33.6834 67.4425 32.4382 68.8889 29.9593 68.8889C24.1021 68.8889 23.6492 63.852 23.6492 56.7361C23.6492 53.2172 26.3603 49.8014 31.7081 46.5831C35.4243 44.3468 39.0875 43.0132 39.2419 42.9579C39.6498 42.8103 40.1005 42.8103 40.5084 42.9579C40.6628 43.0132 44.326 44.3468 48.0422 46.5831C53.39 49.8014 56.1011 53.2172 56.1011 56.7361Z" fill="#818182"/>
<path id="Vector_11" d="M39.8747 46.3195C38.879 46.3195 38.0718 45.5421 38.0718 44.5834V40.2431C38.0718 39.2843 38.879 38.507 39.8747 38.507C40.8703 38.507 41.6776 39.2843 41.6776 40.2431V44.5834C41.6776 45.5421 40.8704 46.3195 39.8747 46.3195Z" fill="#818182"/>
<path id="Vector_12" d="M41.6776 55.8681V62.1701C40.6583 61.8676 39.0932 61.867 38.0718 62.1701V55.8681C38.0718 54.9089 38.8786 54.132 39.8747 54.132C40.8708 54.132 41.6776 54.9089 41.6776 55.8681Z" fill="#B2B2B2"/>
<path id="Vector_13" d="M46.1854 52.3958C46.1854 55.2059 42.9128 56.7361 39.8753 56.7361C36.7622 56.7361 33.5652 55.1483 33.5652 52.3958C33.5652 49.5857 36.8378 48.0555 39.8753 48.0555C42.9885 48.0555 46.1854 49.6433 46.1854 52.3958Z" fill="#999999"/>
<path id="Vector_14" d="M27.7056 48.0556C29.4481 48.0556 30.8606 46.6953 30.8606 45.0174C30.8606 43.3394 29.4481 41.9792 27.7056 41.9792C25.9631 41.9792 24.5505 43.3394 24.5505 45.0174C24.5505 46.6953 25.9631 48.0556 27.7056 48.0556Z" fill="#A07765"/>
<path id="Vector_15" d="M52.0442 48.0556C53.7867 48.0556 55.1993 46.6953 55.1993 45.0174C55.1993 43.3394 53.7867 41.9792 52.0442 41.9792C50.3017 41.9792 48.8892 43.3394 48.8892 45.0174C48.8892 46.6953 50.3017 48.0556 52.0442 48.0556Z" fill="#A07765"/>
<path id="Vector_16" d="M35.3679 35.0346C35.3679 35.0346 38.0722 38.5068 36.2693 41.111C34.4665 43.7151 31.7621 34.1665 35.3679 35.0346Z" fill="#E0B7A3"/>
</g>
</svg>
