<svg width="80" height="80" viewBox="0 0 80 80" fill="none" xmlns="http://www.w3.org/2000/svg">
<g id="Property 1=Norsk Elghund, Property 2=Medium">
<g id="Group">
<path id="Vector" d="M19.7773 32.1525V21.675C19.7773 14.5908 25.5422 8.70361 32.6264 8.70361C33.641 8.70361 34.462 9.52461 34.462 10.5392V23.8153C34.462 24.3907 34.1931 24.9321 33.7342 25.278L22.7208 33.6152C21.5314 34.522 19.7773 33.6831 19.7773 32.1525Z" fill="#463F3F"/>
</g>
<g id="Group_2">
<path id="Vector_2" d="M57.4858 31.4911L46.4723 25.832C45.8611 25.5165 45.4756 24.8873 45.4756 24.1989V10.5392C45.4756 9.52461 46.2966 8.70361 47.3112 8.70361C54.3954 8.70361 60.1602 14.5908 60.1602 21.675V29.858C60.1602 31.2313 58.7086 32.115 57.4858 31.4911Z" fill="#463F3F"/>
</g>
<g id="Group_3">
<path id="Vector_3" d="M30.791 12.5596C26.6073 13.4129 23.4487 17.2422 23.4487 21.6752V28.4618L30.791 22.903V12.5596Z" fill="#EFE2DD"/>
</g>
<g id="Group_4">
<path id="Vector_4" d="M49.147 23.0788L56.4893 26.8521V21.6752C56.4893 17.2421 53.3307 13.4127 49.147 12.5596V23.0788Z" fill="#E1D3CE"/>
</g>
<path id="Vector_5" d="M39.9696 16.1683C27.4511 16.1683 17.1352 25.8968 16.1807 38.1952L21.6138 41.8664H39.9696H58.3254L63.7585 38.1952C62.804 25.8968 52.4881 16.1683 39.9696 16.1683Z" fill="#5B5555"/>
<path id="Vector_6" d="M63.7582 38.1952C62.8037 25.8968 52.4877 16.1683 39.9692 16.1683V41.8664H58.325L63.7582 38.1952Z" fill="#5B5555"/>
<path id="Vector_7" d="M63.7584 38.1952H58.3252C57.2971 38.1952 56.4896 37.3875 56.4896 36.3597C56.4896 32.3995 53.3793 28.0527 48.8535 27.2918C46.1368 26.888 43.4203 27.6223 41.3645 29.3844C40.8505 29.8249 40.3731 30.3021 39.9694 30.8529C39.5656 30.3021 39.0883 29.8249 38.5744 29.3844C36.5185 27.6223 33.8019 26.888 31.0854 27.2918C26.4946 28.0637 23.4492 32.4801 23.4492 36.3597C23.4492 37.3875 22.6417 38.1952 21.6137 38.1952H16.1805C16.1436 38.7825 16.1069 39.4066 16.1069 40.0308V58.3866C16.1069 59.0841 16.5108 59.7082 17.135 60.0386L39.1619 71.1744C39.4186 71.2844 39.6757 71.358 39.9694 71.358C40.2631 71.358 40.5202 71.2844 40.777 71.1744L62.8039 60.0386C63.4281 59.7082 63.8319 59.0841 63.8319 58.3866V40.0308C63.8319 39.4066 63.7952 38.7825 63.7584 38.1952Z" fill="#EFE2DD"/>
<path id="Vector_8" d="M62.8037 60.0386C63.4279 59.7082 63.8317 59.0841 63.8317 58.3866V40.0308C63.8317 39.4066 63.795 38.7825 63.7582 38.1952H58.325C57.297 38.1952 56.4894 37.3875 56.4894 36.3597C56.4894 32.3995 53.3791 28.0527 48.8533 27.2918C46.1367 26.888 43.4201 27.6223 41.3643 29.3844C40.8503 29.8249 40.3729 30.3021 39.9692 30.8529V71.358C40.2631 71.358 40.52 71.2844 40.7768 71.1744L62.8037 60.0386Z" fill="#EFE2DD"/>
<path id="Vector_9" d="M32.6266 38.1953C33.6404 38.1953 34.4622 37.3735 34.4622 36.3597C34.4622 35.346 33.6404 34.5242 32.6266 34.5242C31.6128 34.5242 30.791 35.346 30.791 36.3597C30.791 37.3735 31.6128 38.1953 32.6266 38.1953Z" fill="#463F3F"/>
<path id="Vector_10" d="M47.3112 38.1953C48.3249 38.1953 49.1467 37.3735 49.1467 36.3597C49.1467 35.346 48.3249 34.5242 47.3112 34.5242C46.2974 34.5242 45.4756 35.346 45.4756 36.3597C45.4756 37.3735 46.2974 38.1953 47.3112 38.1953Z" fill="#352C2C"/>
<path id="Vector_11" d="M48.7928 43.5353L47.8894 42.2805C46.0914 39.7225 43.1319 38.1953 39.9698 38.1953C36.8077 38.1953 33.8483 39.7225 32.0503 42.2805L31.1468 43.5353C29.1847 46.2259 27.1661 49.3459 27.1208 52.8799C27.0749 56.4674 29.3447 59.2354 32.7297 60.0232C35.4766 60.6538 38.2183 59.7118 39.9698 57.7359C41.7212 59.7096 44.4746 60.6596 47.2118 60.0215C50.5894 59.2368 52.857 56.4597 52.8189 52.88C52.7814 49.3686 50.8038 46.2927 48.7928 43.5353Z" fill="#766E6E"/>
<path id="Vector_12" d="M47.2112 60.0213C50.5888 59.2367 52.8565 56.4596 52.8183 52.8799C52.7808 49.3686 50.8032 46.2927 48.7922 43.5353L47.8888 42.2805C46.0908 39.7225 43.1313 38.1953 39.9692 38.1953V57.7359C41.7206 59.7095 44.474 60.6595 47.2112 60.0213Z" fill="#766E6E"/>
<g id="Group_5">
<g id="Group_6">
<path id="Vector_13" d="M40.8864 47.3756H39.9686H39.0509C36.1322 47.3324 34.4619 48.078 34.4619 51.0443C34.4619 54.0808 36.9321 56.551 39.9686 56.551C43.0052 56.551 45.4754 54.0808 45.4754 51.0443C45.4754 48.0588 43.8047 47.3577 40.8864 47.3756Z" fill="#463F3F"/>
</g>
<g id="Group_7">
<path id="Vector_14" d="M45.4755 51.0442C45.4755 48.0587 43.8049 47.3576 40.8865 47.3755H39.9688V56.551C43.0053 56.551 45.4755 54.0808 45.4755 51.0442Z" fill="#463F3F"/>
</g>
</g>
</g>
</svg>
