<svg width="80" height="80" viewBox="0 0 80 80" fill="none" xmlns="http://www.w3.org/2000/svg">
<g id="Property 1=Pomeranian, Property 2=Medium">
<path id="Vector" d="M64.5898 40.3648C65.0636 43.9874 65.3478 49.1038 63.4665 52.24C62.7292 53.4712 60.9154 53.4024 60.2733 52.1181C60.2197 52.0099 60.1673 51.9096 60.1161 51.815C58.392 56.7075 54.6557 65.1667 49.9599 67.5146C48.8024 68.0935 47.4314 67.3142 47.3272 66.0302C42.6817 73.1278 37.3874 73.1402 32.7338 66.0302C32.6294 67.3153 31.2579 68.093 30.1011 67.5146C25.4044 65.1663 21.6634 56.6918 19.9449 51.815C19.8937 51.9096 19.8413 52.0099 19.7877 52.1181C19.1471 53.3992 17.3367 53.4753 16.5945 52.24C14.7132 49.104 14.9974 43.987 15.4712 40.3648C14.3818 40.3957 13.5006 39.4579 13.6097 38.362C13.7077 37.3777 14.6567 28.6285 17.6107 24.6903C19.5644 22.0849 21.9374 20.6996 23.4617 20.0217C23.4104 19.5661 23.3569 19.0397 23.3136 18.4986C23.0618 15.3646 23.3307 14.4054 23.914 13.7333C24.3047 13.2833 24.8641 13.0247 25.4485 13.0247C27.564 13.0247 29.1475 16.5079 32.9742 14.9773C36.4363 13.592 38.7329 13.9987 40.0305 14.5603C41.3269 13.9976 43.6236 13.592 47.0868 14.9773C50.9293 16.5143 52.4861 13.0247 54.6125 13.0247C55.1969 13.0247 55.7563 13.2833 56.147 13.7333C56.7303 14.4054 56.9992 15.3646 56.7474 18.4986C56.7041 19.0397 56.6506 19.5661 56.5993 20.0217C58.1236 20.6996 60.4966 22.0849 62.4503 24.6903C65.4043 28.6285 66.3533 37.3777 66.4513 38.362C66.5612 39.4664 65.6667 40.3996 64.5898 40.3648Z" fill="#FFAA64"/>
<path id="Vector_2" d="M54.6132 33.9864C54.6132 33.9864 51.8791 26.6954 48.2336 24.8726C44.5881 23.0499 40.0312 27.6068 40.0312 27.6068C40.0312 27.6068 35.4743 23.0499 31.8288 24.8726C28.1833 26.6954 25.4492 33.9864 25.4492 33.9864L30.0061 34.8978C30.0061 34.8978 29.0947 38.5433 30.0061 41.2774C30.9175 44.0115 30.9175 37.6319 32.7402 37.6319C34.563 37.6319 35.4743 46.7456 40.0312 45.8342C44.5881 46.7456 45.4995 37.6319 47.3222 37.6319C49.145 37.6319 49.145 44.0115 50.0563 41.2774C50.9677 38.5433 50.0563 34.8978 50.0563 34.8978L54.6132 33.9864Z" fill="#F2A661"/>
<path id="Vector_3" d="M40.0317 44.0115C44.0584 44.0115 47.3227 41.5632 47.3227 38.5432C47.3227 35.5232 44.0584 33.075 40.0317 33.075C36.005 33.075 32.7407 35.5232 32.7407 38.5432C32.7407 41.5632 36.005 44.0115 40.0317 44.0115Z" fill="#FFBD7B"/>
<path id="Vector_4" d="M56.0712 48.8724C55.4024 47.535 54.7349 46.8674 54.0661 46.8674C54.0661 47.535 50.7248 57.5601 46.7148 59.5651C46.7148 57.5601 46.0461 55.5551 46.0461 55.5551C46.0461 55.5551 43.3723 62.2389 40.031 62.2389C36.6897 62.2389 34.0159 55.5551 34.0159 55.5551C34.0159 55.5551 33.3472 57.5601 33.3472 59.5651C29.3371 57.5601 25.9958 47.535 25.9958 46.8674C25.3271 46.8674 24.6595 47.535 23.9908 48.8724C22.0063 45.5653 23.3722 35.0024 23.7276 35.0024C23.7276 35.6712 27.6089 45.6963 32.2672 47.7013C32.2672 45.6963 33.0442 43.6913 33.0442 43.6913C33.0442 43.6913 36.1497 50.3739 40.031 50.3739C43.9123 50.3739 47.0178 43.6913 47.0178 43.6913C47.0178 43.6913 47.7948 45.6963 47.7948 47.7013C52.453 45.6963 56.3343 35.6712 56.3343 35.0024C56.6898 35.0024 58.0557 45.5653 56.0712 48.8724Z" fill="#FFBD7B"/>
<g id="Group">
<path id="Vector_5" d="M45.8347 34.9912C44.8797 35.3095 44.3635 36.3418 44.6819 37.2968C44.6175 37.0962 44.9144 37.9449 44.5547 38.3304C44.1158 38.7995 42.5561 39.106 41.8326 38.2619C41.7729 37.877 41.5895 37.5139 41.2916 37.2282C42.1672 36.6563 42.7655 35.6013 42.7655 34.8977C42.7655 33.8911 41.5414 33.075 40.0314 33.075C38.5214 33.075 37.2973 33.8911 37.2973 34.8977C37.2973 35.6013 37.8956 36.6563 38.7712 37.2282C38.4734 37.5139 38.2899 37.8769 38.2302 38.2619C37.5002 39.1136 35.9353 38.7872 35.5081 38.3304C35.1518 37.9486 35.442 37.1064 35.3809 37.2968C35.6993 36.3418 35.1831 35.3095 34.2281 34.9912C33.2735 34.6727 32.2408 35.189 31.9225 36.144C31.31 37.9821 31.7793 40.2962 33.6831 41.5209C34.0849 44.2208 35.9025 46.7456 40.0314 46.7456C44.1603 46.7456 45.9779 44.2208 46.3797 41.5209C48.2898 40.2921 48.7478 37.9673 48.1402 36.144C47.8219 35.189 46.7892 34.6727 45.8347 34.9912ZM37.837 42.365C38.6542 42.2368 39.3994 41.9329 40.0315 41.5016C40.6637 41.9329 41.4088 42.2368 42.226 42.365C41.6866 42.9819 40.8533 43.1001 40.0315 43.1001C39.2097 43.1001 38.3764 42.9818 37.837 42.365Z" fill="#999999"/>
<path id="Vector_6" d="M47.3225 32.1636C48.3292 32.1636 49.1452 31.3475 49.1452 30.3408C49.1452 29.3341 48.3292 28.5181 47.3225 28.5181C46.3158 28.5181 45.4998 29.3341 45.4998 30.3408C45.4998 31.3475 46.3158 32.1636 47.3225 32.1636Z" fill="#999999"/>
<path id="Vector_7" d="M32.7405 32.1636C33.7471 32.1636 34.5632 31.3475 34.5632 30.3408C34.5632 29.3341 33.7471 28.5181 32.7405 28.5181C31.7338 28.5181 30.9177 29.3341 30.9177 30.3408C30.9177 31.3475 31.7338 32.1636 32.7405 32.1636Z" fill="#999999"/>
</g>
</g>
</svg>
