<svg width="80" height="80" viewBox="0 0 80 80" fill="none" xmlns="http://www.w3.org/2000/svg">
<g id="Property 1=Sch&#195;&#164;fer, Property 2=Medium">
<path id="Vector" d="M62.3698 31.2794C60.5545 35.0499 56.3895 39.4412 57.1115 43.1914C57.3346 44.3497 56.4795 45.4333 55.3418 45.4333H24.6626C23.5252 45.4333 22.6698 44.35 22.8929 43.1914C23.6148 39.4419 19.4513 35.0526 17.6346 31.2794C15.6758 27.2111 13.1219 8.88892 21.0984 8.88892C26.672 8.94877 32.4463 20.5167 34.8397 25.7555H45.1647C47.6533 20.3084 53.3932 8.88892 58.9511 8.88892C66.769 8.88892 64.4089 27.0444 62.3698 31.2794Z" fill="#E0B7A3"/>
<path id="Vector_2" d="M49.8817 33.2521C51.6221 37.7698 40.7817 34.448 40.0023 34.2032C39.2229 34.448 28.3826 37.7698 30.1218 33.2521C31.8464 28.7778 21.0805 10.6344 20.106 9.00634C25.9702 7.57795 32.259 20.1067 34.8399 25.7558H45.1648C47.7633 20.0682 54.0103 7.58486 59.8987 9.00634C58.9242 10.6344 48.1583 28.7778 49.8817 33.2521Z" fill="#A07765"/>
<path id="Vector_3" d="M59.7242 58.3105C59.6137 58.5951 58.5659 61.1673 55.5938 63.7394C46.2341 71.842 26.4206 70.474 20.5879 58.9875C20.2416 58.6197 19.9935 58.0247 20.0679 57.0642C20.2589 54.554 22.3699 44.6906 22.9001 42.2157C24.9033 32.8536 29.3665 28.3699 32.757 26.2569C35.923 24.2832 38.7845 23.9494 39.7004 23.8932C40.8929 23.7462 44.2211 24.4337 47.1457 26.2569C50.5363 28.3699 54.9994 32.8536 57.0026 42.2157C59.9203 55.8532 60.0417 57.4826 59.7242 58.3105Z" fill="#FFBD7B"/>
<path id="Vector_4" d="M58.5077 49.4367C55.1849 47.3647 49.1472 44.9284 47.2207 52.9295C44.5137 64.174 40.0021 50.1184 40.0021 50.1184C40.0021 50.1184 35.4904 64.174 32.7834 52.9295C30.8344 44.8347 24.6782 47.4233 21.3813 49.5093C21.7942 47.4526 22.3006 45.0163 22.9006 42.2157C24.9038 32.8535 29.367 28.3698 32.7575 26.2568C35.6365 24.4622 39.0008 23.7451 40.2028 23.8931C41.1187 23.9494 43.9802 24.2832 47.1463 26.2568C50.5368 28.3698 54.9999 32.8535 57.0031 42.2157C57.5953 44.9835 58.0972 47.3952 58.5077 49.4367Z" fill="#F2A661"/>
<path id="Vector_5" d="M36.3925 43.5592C39.0994 38.874 36.2157 38.4546 36.3925 36.0629C36.5867 33.4347 37.8522 32.2706 35.4901 33.2518C30.9785 35.1259 28.2715 40.7481 28.2715 43.5592C28.2715 46.3703 30.9785 41.6851 32.7831 42.6222C34.5878 43.5592 34.5878 46.3703 34.5878 46.3703C34.5878 46.3703 34.7186 46.4563 36.3925 43.5592Z" fill="#999999"/>
<path id="Vector_6" d="M43.8733 43.5592C41.1663 38.874 44.05 38.4546 43.8733 36.0629C43.679 33.4347 42.4135 32.2706 44.7756 33.2518C49.2872 35.1259 51.9942 40.7481 51.9942 43.5592C51.9942 46.3703 49.2872 41.6851 47.4826 42.6222C45.6779 43.5592 45.6779 46.3703 45.6779 46.3703C45.6779 46.3703 45.5472 46.4563 43.8733 43.5592Z" fill="#999999"/>
<path id="Vector_7" d="M44.5136 64.174H35.4903C29.9518 64.174 27.8868 58.0419 29.2281 52.4751C30.2974 48.0335 34.3489 40.9484 39.6478 39.8474C39.8813 39.7993 40.1226 39.7993 40.3561 39.8474C45.6551 40.9484 49.7065 48.0335 50.7758 52.4751C52.1182 58.0462 50.0529 64.174 44.5136 64.174Z" fill="#A07765"/>
<path id="Vector_8" d="M46.3177 54.8036C46.3177 57.837 43.0419 59.4888 40.0014 59.4888C36.8852 59.4888 33.6851 57.7748 33.6851 54.8036C33.6851 52.2057 35.0092 51.0906 36.1202 50.6127C37.2684 50.1184 38.596 50.1184 40.0014 50.1184C41.4068 50.1184 42.7343 50.1184 43.8825 50.6127C44.9935 51.0906 46.3177 52.2057 46.3177 54.8036Z" fill="#999999"/>
<g id="Group">
<path id="Vector_9" d="M47.2202 41.6852C48.2169 41.6852 49.0249 40.8461 49.0249 39.8111C49.0249 38.7761 48.2169 37.937 47.2202 37.937C46.2235 37.937 45.4155 38.7761 45.4155 39.8111C45.4155 40.8461 46.2235 41.6852 47.2202 41.6852Z" fill="#7A3B00"/>
<path id="Vector_10" d="M32.7832 41.6852C33.7799 41.6852 34.5878 40.8461 34.5878 39.8111C34.5878 38.7761 33.7799 37.937 32.7832 37.937C31.7865 37.937 30.9785 38.7761 30.9785 39.8111C30.9785 40.8461 31.7865 41.6852 32.7832 41.6852Z" fill="#7A3B00"/>
</g>
</g>
</svg>
