<svg width="80" height="80" viewBox="0 0 80 80" fill="none" xmlns="http://www.w3.org/2000/svg">
<g id="Property 1=Shetland Sheepdog, Property 2=Medium">
<path id="Vector" d="M67.8928 55.6574C64.8244 57.0731 61.2765 56.972 58.7149 56.4137C57.9687 59.7619 55.558 62.5509 51.505 64.0481C50.1276 64.5562 48.7055 63.3938 49.0912 62.0679C46.9561 63.6783 43.9058 65.6148 40.5735 66.5804C40.229 66.6864 39.8686 66.6958 39.507 66.6023C36.4101 65.7219 33.3993 63.9454 30.9114 62.0679C31.2977 63.3957 29.8731 64.5555 28.4976 64.0481C24.4454 62.5512 22.034 59.7626 21.2878 56.4137C18.3437 57.0549 14.9131 56.9505 12.1099 55.6574C10.4125 54.8728 11.0197 52.5001 12.9179 52.5001C12.9246 52.5001 13.7699 52.4126 15.5438 50.372C14.5034 50.3564 13.3873 50.2345 12.3469 49.9147C10.8243 49.4454 10.6747 47.5052 12.1099 46.8428C13.2914 46.298 14.6794 45.1418 15.9569 43.8949C14.2257 43.8146 13.4694 41.9873 14.7799 40.8147C14.9615 40.6522 15.1997 40.4813 15.5269 40.2803C15.6567 40.199 16.8811 39.3042 19.9618 32.8563C21.088 30.499 22.0687 28.2198 22.5821 26.999C20.165 24.0209 21.0542 20.5875 21.0971 20.4292C21.3074 19.6235 24.6193 13.3333 30.0707 13.3333C33.8355 13.3333 35.7797 15.962 37.2309 19.0146C39.3974 18.5165 39.7011 18.1711 40.534 18.4094C40.6634 18.442 41.6352 18.7547 42.7717 19.0135C42.7932 18.9719 42.8124 18.9302 42.8315 18.8906C43.7072 17.0865 45.5286 13.3333 49.9319 13.3333C55.572 13.3333 58.6844 19.8969 58.8142 20.1771C59.1843 20.9847 59.5863 24.3306 57.4205 26.999C57.9351 28.2219 58.9191 30.5094 60.0476 32.8688C63.1238 39.3053 64.346 40.199 64.4757 40.2803C64.803 40.4813 65.0411 40.6522 65.2228 40.8147C66.5271 41.9818 65.7835 43.8141 64.0458 43.8949C65.3232 45.1418 66.7112 46.298 67.8928 46.8428C69.3283 47.5054 69.1779 49.4456 67.6558 49.9147C66.6153 50.2345 65.4993 50.3564 64.4588 50.372C66.2328 52.4126 67.078 52.5001 67.0859 52.5001C68.9842 52.5001 69.5898 54.873 67.8928 55.6574Z" fill="#ECE2E2"/>
<path id="Vector_2" d="M40.0013 18.3344V47.5001C33.8037 47.5001 22.8801 53.8022 18.0457 56.7929C16.1171 56.8324 14.0204 56.5387 12.1099 55.6574C10.4125 54.8729 11.0197 52.5001 12.9179 52.5001C12.9246 52.5001 13.7699 52.4126 15.5438 50.372C14.5034 50.3564 13.3873 50.2345 12.3469 49.9147C10.8243 49.4454 10.6747 47.5052 12.1099 46.8428C13.2914 46.298 14.6794 45.1418 15.9569 43.8949C14.2257 43.8146 13.4694 41.9873 14.7799 40.8147C14.9615 40.6522 15.1997 40.4813 15.5269 40.2803C15.6567 40.199 16.8811 39.3043 19.9618 32.8563C21.088 30.499 22.0687 28.2198 22.5821 26.999C20.1649 24.0209 21.0542 20.5875 21.0971 20.4292C21.3074 19.6235 24.6193 13.3333 30.0707 13.3333C33.8355 13.3333 35.7797 15.962 37.2309 19.0146C39.2579 18.5485 39.4204 18.3344 40.0013 18.3344Z" fill="#A2D0FF"/>
<path id="Vector_3" d="M39.9155 18.3365C39.4218 18.3527 39.035 18.5998 37.2309 19.0146C35.7789 15.9603 33.852 13.3333 30.0707 13.3333C24.4306 13.3333 21.3182 19.8969 21.1885 20.1771C20.8183 20.9847 20.4164 24.3306 22.5821 26.999C21.2962 30.0564 19.4859 34.0622 17.8561 36.9594C15.7923 40.6314 15.4947 40.1752 14.7798 40.8147C13.4755 41.9818 14.2191 43.8143 15.9568 43.8949C14.6794 45.1418 13.2914 46.298 12.1099 46.8428C10.6743 47.5054 10.8248 49.4456 12.3468 49.9147C13.3873 50.2345 14.5034 50.3564 15.5438 50.372C13.7699 52.4126 12.9246 52.5001 12.9179 52.5001C11.0192 52.5001 10.4129 54.8731 12.1099 55.6574C14.9417 56.9637 18.1529 56.6885 20.651 55.2236C26.1093 52.0227 34.7511 47.5001 40.0013 47.5001C40.0013 16.094 40.0586 18.3311 39.9155 18.3365Z" fill="#F2A661"/>
<path id="Vector_4" d="M67.0837 52.5001C67.077 52.5001 66.2317 52.4126 64.4578 50.372C65.4982 50.3564 66.6143 50.2345 67.6547 49.9147C69.1773 49.4454 69.3269 47.5052 67.8917 46.8428C66.7102 46.298 65.3222 45.1418 64.0447 43.8949C65.7759 43.8146 66.5322 41.9873 65.2217 40.8147C65.0401 40.6522 64.8019 40.4813 64.4747 40.2803C62.6549 39.1408 58.2279 28.9212 57.4195 26.999C59.8366 24.0209 58.9474 20.5875 58.9045 20.4292C58.6942 19.6235 55.3823 13.3333 49.9309 13.3333C46.1661 13.3333 44.2219 15.962 42.7707 19.0146C40.7907 18.5593 40.579 18.3344 40.0014 18.3344C39.9901 18.3344 40.0003 18.0144 40.0003 47.5001C45.2505 47.5001 53.8923 52.0227 59.3506 55.2236C61.8421 56.6845 65.0531 56.9667 67.8917 55.6574C69.589 54.8728 68.9819 52.5001 67.0837 52.5001Z" fill="#F2A661"/>
<path id="Vector_5" d="M48.125 46.6668C48.125 49.6254 43.9887 55.0001 40 55.0001C36.0113 55.0001 31.875 49.6254 31.875 46.6668C31.875 43.7081 36.0113 46.6668 40 46.6668C43.9887 46.6668 48.125 43.7081 48.125 46.6668Z" fill="#ECE2E2"/>
<path id="Vector_6" d="M39.998 18.3344C40.0093 18.3344 39.9991 18.1614 39.9991 32.5C37.2908 32.5 35.4853 25 33.6797 26.6666C31.8741 28.3333 30.9714 33.3333 28.263 35.8333C26.3695 37.5812 20.9471 37.2927 17.854 36.9594C19.484 34.0621 21.2943 30.0561 22.58 26.9989C20.1629 24.0208 21.0521 20.5875 21.095 20.4291C21.3053 19.6235 24.6172 13.3333 30.0686 13.3333C33.8334 13.3333 35.7775 15.962 37.2287 19.0146C39.2345 18.5534 39.4229 18.3344 39.998 18.3344Z" fill="#A07765"/>
<path id="Vector_7" d="M62.1461 36.9594C59.053 37.2927 53.6307 37.5812 51.7371 35.8333C49.0288 33.3333 48.126 28.3333 46.3204 26.6666C44.5149 25 42.7093 32.5 40.001 32.5V18.3344C40.58 18.3344 40.8213 18.5661 42.7714 19.0146C44.2234 15.9603 46.1502 13.3333 49.9315 13.3333C55.5716 13.3333 58.684 19.8969 58.8137 20.1771C59.1882 20.994 59.5819 24.3355 57.4201 26.9989C58.706 30.0563 60.5163 34.0622 62.1461 36.9594Z" fill="#A07765"/>
<g id="Group">
<path id="Vector_8" d="M33.6806 35.8333C34.6777 35.8333 35.4861 35.0871 35.4861 34.1667C35.4861 33.2462 34.6777 32.5 33.6806 32.5C32.6834 32.5 31.875 33.2462 31.875 34.1667C31.875 35.0871 32.6834 35.8333 33.6806 35.8333Z" fill="#999999"/>
<path id="Vector_9" d="M44.7268 40.1264C43.8052 40.4781 43.3671 41.4528 43.7481 42.3034C44.2122 43.3397 45.4166 46.443 45.4166 48.3333C45.4166 49.0535 45.4163 51.059 41.8055 51.5547V48.781C42.8845 48.2973 43.6111 47.4377 43.6111 46.6666C43.6111 45.516 41.9943 45 39.9999 45C35.1897 45 35.8305 47.7213 38.1944 48.781V51.5547C34.5836 51.0589 34.5833 49.0535 34.5833 48.3333C34.5833 46.4505 35.7879 43.3417 36.2522 42.3027C36.6327 41.4522 36.1944 40.4779 35.2731 40.1263C34.3517 39.7747 33.2957 40.1791 32.9147 41.0298C32.7159 41.4737 30.9722 45.4503 30.9722 48.3332C30.9722 52.0281 33.694 54.9999 39.9999 54.9999C46.3048 54.9999 49.0277 52.0289 49.0277 48.3332C49.0277 45.4503 47.284 41.4737 47.0852 41.0298C46.7042 40.1792 45.6483 39.7745 44.7268 40.1264Z" fill="#999999"/>
<path id="Vector_10" d="M46.3192 35.8335C47.3164 35.8335 48.1248 35.0873 48.1248 34.1668C48.1248 33.2463 47.3164 32.5001 46.3192 32.5001C45.322 32.5001 44.5137 33.2463 44.5137 34.1668C44.5137 35.0873 45.322 35.8335 46.3192 35.8335Z" fill="#999999"/>
</g>
</g>
</svg>
