<svg width="80" height="80" viewBox="0 0 80 80" fill="none" xmlns="http://www.w3.org/2000/svg">
<g id="Property 1=Staffordshire Bull Terrier, Property 2=Medium">
<path id="Vector" d="M41.1112 15.5555C24.6006 15.5555 14.7437 25.3462 14.7437 41.746C14.7437 57.0203 23.3681 64.4443 41.1112 64.4443C58.8544 64.4443 67.4788 57.0203 67.4788 41.746C67.4788 25.3463 57.6219 15.5555 41.1112 15.5555Z" fill="#E2AF8A"/>
<path id="Vector_2" d="M67.4789 41.746C67.4789 25.3463 57.622 15.5556 41.1113 15.5556V64.4444C58.8545 64.4444 67.4789 57.0204 67.4789 41.746Z" fill="#E2AF8A"/>
<path id="Vector_3" d="M48.1031 43.4921H41.1115H34.1198C33.007 44.9547 32.3223 46.7554 32.3223 48.7301C32.3223 53.5515 36.2572 57.4603 41.1115 57.4603C45.9657 57.4603 49.9007 53.5515 49.9007 48.7301C49.9007 46.7554 49.2159 44.9547 48.1031 43.4921Z" fill="#E6455A"/>
<path id="Vector_4" d="M49.9005 48.7301C49.9005 46.7554 49.2158 44.9547 48.103 43.4921H41.1113V57.4603C45.9655 57.4603 49.9005 53.5515 49.9005 48.7301Z" fill="#E6455A"/>
<g id="Group">
<path id="Vector_5" d="M30.19 31.2853L23.9569 29.0328C23.0437 28.7037 22.5733 27.7011 22.9063 26.7956C23.2376 25.8885 24.2521 25.4248 25.1586 25.7521L31.3916 28.0046C32.3136 28.3311 33.3121 27.8667 33.6455 26.9611C33.9768 26.0539 34.9914 25.5902 35.8978 25.9175C36.8111 26.2466 37.2815 27.2492 36.9484 28.1546C35.9441 30.8918 32.9123 32.2707 30.19 31.2853Z" fill="#CC7029"/>
</g>
<g id="Group_2">
<path id="Vector_6" d="M45.274 28.1548C44.9409 27.2494 45.4113 26.2467 46.3246 25.9177C47.2309 25.5886 48.2472 26.0541 48.5769 26.9612C48.9012 27.8421 49.8891 28.3442 50.8308 28.0047L57.0638 25.7523C57.9702 25.4232 58.9864 25.8887 59.3161 26.7958C59.6491 27.7012 59.1787 28.7039 58.2655 29.0329L52.0324 31.2854C49.3093 32.271 46.2781 30.8912 45.274 28.1548Z" fill="#CC7029"/>
</g>
<g id="Group_3">
<path id="Vector_7" d="M30.5645 36.5079C31.5353 36.5079 32.3223 35.7262 32.3223 34.7619C32.3223 33.7976 31.5353 33.0159 30.5645 33.0159C29.5936 33.0159 28.8066 33.7976 28.8066 34.7619C28.8066 35.7262 29.5936 36.5079 30.5645 36.5079Z" fill="#463F3F"/>
</g>
<g id="Group_4">
<path id="Vector_8" d="M51.6582 36.5079C52.629 36.5079 53.416 35.7262 53.416 34.7619C53.416 33.7976 52.629 33.0159 51.6582 33.0159C50.6874 33.0159 49.9004 33.7976 49.9004 34.7619C49.9004 35.7262 50.6874 36.5079 51.6582 36.5079Z" fill="#352C2C"/>
</g>
<g id="Group_5">
<path id="Vector_9" d="M41.1113 26.0319C40.1397 26.0319 39.3535 26.8128 39.3535 27.7779V31.2699C39.3535 32.2349 40.1397 33.0159 41.1113 33.0159C42.0829 33.0159 42.8691 32.2349 42.8691 31.2699V27.7779C42.8691 26.8128 42.0829 26.0319 41.1113 26.0319Z" fill="#CC7029"/>
<path id="Vector_10" d="M42.8691 31.2699V27.7779C42.8691 26.8128 42.0829 26.0319 41.1113 26.0319V33.0159C42.0829 33.0159 42.8691 32.2349 42.8691 31.2699Z" fill="#CC7029"/>
</g>
<g id="Group_6">
<path id="Vector_11" d="M13.9523 33.542L11.4302 26.979C10.4345 24.2662 11.849 21.2533 14.582 20.266L27.1122 15.7781C28.4752 15.287 29.9876 15.6553 30.9626 16.7142C31.9411 17.7748 32.1779 19.3025 31.5652 20.6053C28.4907 27.1529 23.037 32.1182 16.2047 34.5855C15.3052 34.9118 14.2874 34.4588 13.9523 33.542Z" fill="#828282"/>
</g>
<g id="Group_7">
<path id="Vector_12" d="M66.018 34.5813C59.1857 32.1141 53.732 27.1487 50.6575 20.6011C50.0447 19.2985 50.2816 17.7707 51.2601 16.71C52.2386 15.6511 53.7441 15.2828 55.1105 15.7739L67.6407 20.2618C70.3736 21.249 71.7882 24.2619 70.7925 26.9748L68.2704 33.5378C67.9357 34.4535 66.9188 34.9082 66.018 34.5813Z" fill="#828282"/>
</g>
<g id="Group_8">
<path id="Vector_13" d="M55.5508 46.213L49.0829 39.7886L43.0087 41.779L41.1108 46.9842L47.8793 53.4071C50.2331 55.7451 54.0258 55.4119 55.9598 53.2238C57.5655 51.4069 57.731 48.3786 55.5508 46.213Z" fill="#5B5555"/>
<path id="Vector_14" d="M33.139 39.7906L26.6711 46.2151C24.4909 48.3807 24.6564 51.4088 26.2621 53.2259C28.1961 55.414 31.9888 55.7471 34.3425 53.4092L41.111 46.9863L39.071 41.6529L33.139 39.7906Z" fill="#5B5555"/>
</g>
<path id="Vector_15" d="M47.3254 38.0426C45.6164 36.3451 43.3638 35.4964 41.1112 35.4964C38.8586 35.4964 36.6059 36.3451 34.897 38.0426L33.1392 39.7886L39.8684 46.4726C40.2118 46.8137 40.6615 46.9842 41.1112 46.9842C41.561 46.9842 42.0107 46.8137 42.354 46.4726L49.0832 39.7886L47.3254 38.0426Z" fill="#352C2C"/>
<path id="Vector_16" d="M49.0834 39.7886L47.3255 38.0426C45.6166 36.3451 43.3639 35.4964 41.1113 35.4964V46.9841C41.5611 46.9841 42.0109 46.8136 42.3541 46.4725L49.0834 39.7886Z" fill="#352C2C"/>
</g>
</svg>
