<svg width="69" height="56" viewBox="0 0 69 56" fill="none" xmlns="http://www.w3.org/2000/svg">
<path d="M67.3332 19.2464C67.3332 23.4821 67.1978 25.3826 63.7915 29.9638C60.1027 34.9249 61.0419 43.505 55.5233 43.505C52.5843 43.505 51.0793 41.2332 50.4985 38.3394C48.2914 41.4017 48.6685 43.226 48.5259 44.2379C48.3802 48.2017 41.6584 54.971 33.9998 54.971C26.3466 54.971 19.6196 48.2042 19.4738 44.2379C19.3278 43.202 19.7127 41.4247 17.4998 38.3486C16.9308 41.1711 15.6483 42.8522 13.6717 43.35C11.6886 43.8504 9.96859 43.1294 8.82666 41.3195C7.07861 38.5426 6.81195 33.4656 4.20817 29.9638C0.801921 25.3826 0.666504 23.4821 0.666504 19.2464C0.666504 16.9913 4.21729 11.6116 6.45687 8.75096C9.46078 4.91056 13.9673 0.333344 18.3748 0.333344C19.7121 0.333344 21.0597 1.25667 22.8787 2.98511C25.4622 1.82314 31.1289 0.333344 33.9998 0.333344C36.864 0.333344 42.5311 1.82038 45.1209 2.98511C46.9399 1.25667 48.2876 0.333344 49.6248 0.333344C54.0324 0.333344 58.5389 4.91056 61.5428 8.75096C63.7824 11.6116 67.3332 16.9913 67.3332 19.2464V19.2464Z" fill="#EFD66C"/>
<path d="M54.8332 23.4493C54.8332 26.0591 54.3595 29.9765 54.3162 33.4535C54.3045 34.4433 53.7019 34.9164 53.2095 35.4131C52.9794 35.655 49.1174 38.7851 48.6327 42.6408C48.5636 43.1804 48.5967 43.384 48.5702 43.8136C48.5702 43.8912 48.5259 44.2405 48.5259 44.2444C47.6942 50.1389 38.47 51.0177 33.9998 47.6107C29.2838 51.2049 19.4165 50.0028 19.4165 43.413C19.4165 40.541 17.241 37.5781 15.1483 35.7349C14.3204 35 13.6953 34.4463 13.6834 33.4535C13.6405 29.9998 13.1665 26.0413 13.1665 23.4493C13.1665 18.1162 17.1988 9.26673 17.7498 8.52899C21.1687 3.93089 20.9225 4.24637 21.0688 4.1015C22.9045 2.24684 31.2162 0.333344 33.9998 0.333344C36.7431 0.333344 45.0901 2.24172 46.9308 4.1015C47.0774 4.24664 46.8216 3.91828 50.2498 8.52899C50.7113 9.14682 54.8332 17.9602 54.8332 23.4493Z" fill="#FFEC8F"/>
<path d="M31.9165 39.21H36.0832V49.7173H31.9165V39.21Z" fill="#EFD66C"/>
<path d="M27.4895 16.0942C27.4895 16.0942 20.4582 17.145 19.4165 22.3986C18.3749 27.6522 23.3228 32.9058 23.3228 32.9058C23.3228 32.9058 29.5728 28.7029 29.5728 24.5C29.5728 20.2971 31.6561 17.145 27.4895 16.0942Z" fill="#FFE773"/>
<path d="M40.5104 16.0942C40.5104 16.0942 47.5417 17.145 48.5833 22.3986C49.625 27.6522 44.6771 32.9058 44.6771 32.9058C44.6771 32.9058 38.4271 28.7029 38.4271 24.5C38.4271 20.2971 36.3437 17.145 40.5104 16.0942Z" fill="#FFE773"/>
<path d="M24.1042 24.5C25.5424 24.5 26.7083 23.3239 26.7083 21.8732C26.7083 20.4224 25.5424 19.2464 24.1042 19.2464C22.6659 19.2464 21.5 20.4224 21.5 21.8732C21.5 23.3239 22.6659 24.5 24.1042 24.5Z" fill="#A07765"/>
<path d="M43.8957 24.5C45.3339 24.5 46.4998 23.3239 46.4998 21.8732C46.4998 20.4224 45.3339 19.2464 43.8957 19.2464C42.4574 19.2464 41.2915 20.4224 41.2915 21.8732C41.2915 23.3239 42.4574 24.5 43.8957 24.5Z" fill="#A07765"/>
<path d="M32.9585 10.8403C32.9585 10.8403 35.0418 8.7389 35.0418 10.8403C35.0418 12.9418 34.0002 16.094 34.0002 16.094C34.0002 16.094 32.9585 11.8911 32.9585 10.8403Z" fill="#FFE773"/>
<path d="M41.2918 36.0577C41.2918 38.4147 38.0309 43.4128 34.0002 43.4128C29.8916 43.4128 26.7085 38.3245 26.7085 36.0577C26.7085 30.4163 41.2918 30.4178 41.2918 36.0577Z" fill="#999999"/>
</svg>
